<?xml version="1.0" standalone="no"?>
<!DOCTYPE svg PUBLIC "-//W3C//DTD SVG 1.1//EN" "http://www.w3.org/Graphics/SVG/1.1/DTD/svg11.dtd" >
<svg xmlns="http://www.w3.org/2000/svg">
<metadata>Generated by IcoMoon</metadata>
<defs>
<font id="icomoon" horiz-adv-x="1024">
<font-face units-per-em="1024" ascent="960" descent="-64" />
<missing-glyph horiz-adv-x="1024" />
<glyph unicode="&#x20;" horiz-adv-x="512" d="" />
<glyph unicode="&#xe900;" glyph-name="add" d="M1024 511.039h-452.036v448.961h-123.003v-448.961h-448.961v-123.003h448.961v-452.036h123.003v452.036h452.036z" />
<glyph unicode="&#xe901;" glyph-name="arrow-down" d="M512 156.554l-512 512 55.138 55.138 456.862-456.862 456.862 456.862 55.138-55.138z" />
<glyph unicode="&#xe902;" glyph-name="arrow-left" d="M236.308 448l512-512 55.138 55.138-456.862 456.862 456.862 456.862-55.138 55.138z" />
<glyph unicode="&#xe903;" glyph-name="arrow-right" d="M803.446 448l-512-512-55.138 55.138 456.862 456.862-456.862 456.862 55.138 55.138z" />
<glyph unicode="&#xe904;" glyph-name="arrow-up" d="M512 723.692l-512-512 55.138-55.138 456.862 456.862 456.862-456.862 55.138 55.138z" />
<glyph unicode="&#xe905;" glyph-name="comment" d="M502.691 843.636c-279.273 0-502.691-172.218-502.691-386.327 0-88.436 37.236-167.564 102.4-232.727l-37.236-181.527 167.564 93.091c79.127-37.236 172.218-60.509 274.618-60.509 279.273 0 502.691 172.218 502.691 386.327s-228.073 381.673-507.345 381.673zM442.182 247.855l-195.491 195.491 69.818 69.818 125.673-125.673 251.345 251.345 69.818-69.818-321.164-321.164z" />
<glyph unicode="&#xe906;" glyph-name="connection" d="M661.333 341.333l362.667 362.667-256 256-362.667-362.667 106.667-106.667-42.667-42.667-106.667 106.667-362.667-362.667 256-256 362.667 362.667-106.667 106.667 42.667 42.667 106.667-106.667zM480 298.667l-224-224-117.333 117.333 224 224 37.333-37.333-74.667-74.667 42.667-37.333 74.667 74.667 37.333-42.667zM544 597.333l224 224 117.333-117.333-224-224-37.333 37.333 64 64-37.333 37.333-64-64-42.667 42.667z" />
<glyph unicode="&#xe907;" glyph-name="cross" d="M1024 905.697l-54.303 54.303-457.697-457.697-457.697 457.697-54.303-54.303 457.697-457.697-457.697-457.697 54.303-54.303 457.697 457.697 457.697-457.697 54.303 54.303-457.697 457.697z" />
<glyph unicode="&#xe908;" glyph-name="edit" d="M904.533 622.933l-140.8 140.8-106.667-106.667v187.733h-657.067v-810.667h652.8v337.067l251.733 251.733zM588.8 102.4h-524.8v682.667h524.8v-192l-243.2-243.2 140.8-140.8 102.4 102.4v-209.067zM947.2 669.867l-140.8 140.8 38.4 38.4c34.133 34.133 89.6 34.133 128 0l17.067-17.067c34.133-34.133 34.133-89.6 0-128l-42.667-34.133zM307.2 166.4l17.067 93.867 76.8-76.8z" />
<glyph unicode="&#xe909;" glyph-name="link" d="M29.743 960v-84.979h849.793l-879.535-879.535 59.485-59.485 879.535 879.535v-849.793h84.979v994.257z" />
<glyph unicode="&#xe90a;" glyph-name="magnifier" d="M438.673 803.479c26.115-26.115 26.115-68.457 0-94.572s-68.457-26.115-94.572 0c-26.115 26.115-26.115 68.457 0 94.572s68.457 26.115 94.572 0zM986.384 94.824l29.257-29.257c8.359-8.359 8.359-20.898 0-29.257l-91.951-91.951c-8.359-8.359-20.898-8.359-29.257 0l-29.257 29.257 121.208 121.208zM100.31 366.498c117.029-117.029 292.571-133.747 426.318-54.335l330.188-330.188 121.208 121.208-330.188 330.188c79.412 133.747 62.694 309.29-54.335 426.318-133.747 133.747-355.265 133.747-493.192 0s-133.747-359.445 0-493.192zM142.106 404.114c-112.849 112.849-112.849 300.931 0 413.78s300.931 112.849 413.78 0c112.849-112.849 112.849-300.931 0-413.78s-300.931-112.849-413.78 0z" />
<glyph unicode="&#xe90b;" glyph-name="minus" d="M0 511.039h1024v-123.003h-1024v123.003z" />
<glyph unicode="&#xe90c;" glyph-name="print" d="M961.829 689.371h-106.057v179.2h-694.857v-179.2h-106.057c-29.257 0-54.857-21.943-54.857-51.2v-420.571c0-29.257 25.6-54.857 54.857-54.857h106.057v-142.629h694.857v142.629h106.057c29.257 0 54.857 25.6 54.857 54.857v420.571c0 29.257-25.6 51.2-54.857 51.2zM197.486 832h621.714v-142.629h-621.714v142.629zM819.2 56.686h-621.714v299.886h621.714v-299.886z" />
<glyph unicode="&#xe90d;" glyph-name="search" d="M1024 20.828l-333.254 333.254c48.473 60.592 72.71 139.361 72.71 224.189 0 212.071-169.657 381.728-381.728 381.728s-381.728-169.657-381.728-381.728 169.657-381.728 381.728-381.728c84.828 0 163.598 30.296 224.189 72.71l333.254-333.254 84.828 84.828zM381.728 317.728c-145.42 0-260.544 115.124-260.544 260.544s115.124 260.544 260.544 260.544 260.544-115.124 260.544-260.544-115.124-260.544-260.544-260.544z" />
<glyph unicode="&#xe90e;" glyph-name="shape1" d="M516.876 779.581l78.019 87.771h-160.914zM73.143 345.6h-48.762v614.4h516.876v-102.4h-48.762v53.638h-419.352zM512 135.924l-78.019-87.771h160.914zM1004.495-44.495h-516.876v102.4h48.762v-53.638h419.352v565.638h48.762zM195.048 784.457v-653.41h648.533v653.41h-648.533zM711.924 262.705h-390.095v390.095h390.095v-390.095z" />
<glyph unicode="&#xe90f;" glyph-name="tick" d="M519.062-53.407l-413.131 413.131 74.152 74.152 303.669-300.138 335.448 826.262 98.869-38.841z" />
<glyph unicode="&#xe910;" glyph-name="facebook" horiz-adv-x="554" d="M532.778 960h-133.195c-149.178 0-246.144-99.097-246.144-252.537v-116.146h-132.129c-11.721 0-21.311-9.59-21.311-21.311v-168.358c0-11.721 9.59-21.311 21.311-21.311h133.195v-425.157c0-11.721 9.59-21.311 21.311-21.311h174.751c11.721 0 21.311 9.59 21.311 21.311v426.223h156.637c11.721 0 21.311 9.59 21.311 21.311v168.358c0 5.328-2.131 10.656-6.393 14.918s-9.59 6.393-14.918 6.393h-157.702v98.031c0 46.884 11.721 71.392 72.458 71.392h89.507c11.721 0 21.311 9.59 21.311 21.311v155.571c0 11.721-9.59 21.311-21.311 21.311z" />
<glyph unicode="&#xe911;" glyph-name="google-plus" horiz-adv-x="987" d="M324.267-12.8c-122.311 0-210.489 76.8-210.489 170.667 0 91.022 108.089 164.978 230.4 164.978 28.444 0 54.044-5.689 79.644-11.378 65.422-45.511 113.778-71.111 128-125.156 2.844-11.378 2.844-22.756 2.844-34.133 0-93.867-59.733-164.978-230.4-164.978zM355.556 530.489c-82.489 2.844-159.289 91.022-173.511 199.111s39.822 190.578 122.311 187.733c82.489-2.844 159.289-88.178 173.511-196.267s-39.822-193.422-122.311-190.578zM526.222 371.2c-28.444 19.911-82.489 68.267-82.489 99.556 0 34.133 8.533 51.2 59.733 91.022s88.178 99.556 88.178 164.978c0 79.644-34.133 156.444-102.4 182.044h99.556l73.956 51.2h-318.578c-142.222 0-275.911-108.089-275.911-233.244 0-128 96.711-230.4 241.778-230.4 11.378 0 19.911 0 28.444 0-8.533-17.067-17.067-36.978-17.067-59.733 0-34.133 19.911-65.422 42.667-88.178-17.067 0-36.978 0-54.044 0-176.356 0-312.889-110.933-312.889-227.556 0-113.778 147.911-184.889 324.267-184.889 201.956 0 312.889 113.778 312.889 227.556 2.844 93.867-25.6 147.911-108.089 207.644zM987.022 519.111h-122.311v122.311h-99.556v-122.311h-122.311v-99.556h122.311v-122.311h99.556v122.311h122.311v99.556z" />
<glyph unicode="&#xe912;" glyph-name="instagram" d="M824.889 960h-625.778c-110.933 0-199.111-88.178-199.111-199.111v-625.778c0-108.089 88.178-199.111 199.111-199.111h625.778c108.089 0 199.111 88.178 199.111 199.111v625.778c0 110.933-88.178 199.111-199.111 199.111zM881.778 843.378h22.756v-173.511h-173.511v173.511h150.756zM366.933 553.244c31.289 45.511 85.333 73.956 145.067 73.956s113.778-28.444 145.067-73.956c22.756-28.444 34.133-65.422 34.133-105.244 0-99.556-79.644-179.2-179.2-179.2s-179.2 79.644-179.2 179.2c0 39.822 11.378 76.8 34.133 105.244zM924.444 135.111c0-54.044-42.667-96.711-99.556-96.711h-625.778c-54.044 0-96.711 42.667-96.711 96.711v418.133h153.6c-14.222-31.289-19.911-68.267-19.911-105.244 0-153.6 125.156-278.756 278.756-278.756s278.756 125.156 278.756 278.756c0 36.978-8.533 73.956-19.911 105.244h153.6v-418.133z" />
<glyph unicode="&#xe913;" glyph-name="linkedin" horiz-adv-x="1067" d="M125.3 960c-73.451 0-125.3-51.848-125.3-125.3 0-64.81 60.489-125.3 125.3-125.3 73.451 0 125.3 51.848 125.3 125.3 4.321 73.451-56.169 125.3-125.3 125.3zM233.316 618.667h-220.354v-686.987h220.354v686.987zM1067.207 307.578c0 12.962 0 34.565 0 47.527 0 0 0 0 0 8.641v0c-8.641 159.865-60.489 272.203-267.882 272.203-108.017 0-181.468-60.489-207.392-112.338v0 95.055h-211.713v-686.987h220.354v341.333c0 86.414 21.603 181.468 133.941 181.468s112.338-99.376 112.338-181.468v-332.692h220.354v367.257z" />
<glyph unicode="&#xe914;" glyph-name="pinterest" horiz-adv-x="1021" d="M512 960c-284.444 0-512-230.4-512-512 0-210.489 125.156-389.689 307.2-469.333-2.844 36.978 0 79.644 8.533 116.622 8.533 42.667 65.422 278.756 65.422 278.756s-17.067 34.133-17.067 79.644c0 76.8 42.667 133.689 99.556 133.689 45.511 0 68.267-34.133 68.267-76.8 0-45.511-28.444-116.622-45.511-182.044-14.222-54.044 28.444-99.556 79.644-99.556 96.711 0 162.133 125.156 162.133 273.067 0 110.933-76.8 196.267-213.333 196.267-153.6 0-250.311-116.622-250.311-244.622 0-45.511 14.222-76.8 34.133-99.556 8.533-11.378 11.378-17.067 8.533-28.444-2.844-8.533-8.533-31.289-11.378-39.822-2.844-14.222-14.222-17.067-25.6-14.222-71.111 28.444-105.244 108.089-105.244 196.267 0 145.067 122.311 318.578 364.089 318.578 196.267 0 324.267-142.222 324.267-292.978 0-201.956-110.933-349.867-275.911-349.867-54.044 0-108.089 31.289-125.156 62.578 0 0-28.444-116.622-36.978-142.222-11.378-39.822-31.289-79.644-51.2-110.933 45.511-14.222 93.867-19.911 145.067-19.911 281.6 0 512 230.4 512 512 0 284.444-227.556 514.844-509.156 514.844z" />
<glyph unicode="&#xe915;" glyph-name="twitter" horiz-adv-x="1319" d="M1156.251 801.299c52.9 34.007 102.022 86.908 120.915 147.365-52.9-34.007-105.801-52.9-173.815-68.015-45.343 52.9-120.915 79.351-192.708 79.351-147.365 0-268.28-120.915-268.28-260.723 0-18.893 0-41.565 7.557-60.458-120.915 7.557-241.83 41.565-340.074 102.022-3.779 3.779-7.557 3.779-7.557 3.779-83.129 49.122-147.365 109.579-207.823 173.815-22.672-37.786-34.007-86.908-34.007-132.251 0-94.465 45.343-173.815 120.915-219.159-45.343 0-86.908 15.114-120.915 34.007v0c0-128.472 94.465-234.273 215.38-253.166-18.893-7.557-45.343-7.557-71.793-7.557-18.893 0-34.007 0-52.9 7.557 34.007-105.801 132.251-181.373 253.166-181.373-94.465-71.793-207.823-113.358-332.517-113.358-18.893 0-41.565 0-68.015 7.557 120.915-71.793 260.723-120.915 415.646-120.915 494.996 0 770.834 400.531 770.834 748.162 0 15.114 0 18.893 0 34.007 52.9 41.565 102.022 79.351 132.251 132.251-60.458-26.45-113.358-49.122-166.258-52.9z" />
<glyph unicode="&#xe916;" glyph-name="vimeo" horiz-adv-x="1180" d="M1008.198 960c-164.346 4.741-274.963-86.914-333.432-276.543 30.025 12.642 58.469 18.963 86.914 18.963 60.049 0 86.914-33.185 79.012-101.136-3.16-41.086-30.025-99.556-79.012-178.568-48.988-77.432-86.914-116.938-110.617-116.938-31.605 0-61.63 60.049-86.914 180.148-9.481 34.765-25.284 126.42-47.407 271.802-22.123 134.321-79.012 197.531-170.667 188.049-39.506-3.16-96.395-39.506-173.827-105.877-56.889-50.568-113.778-102.716-172.247-153.284l55.309-71.111c53.728 37.926 83.753 55.309 93.235 55.309 41.086 0 79.012-63.21 113.778-191.21 31.605-116.938 63.21-233.877 94.815-350.815 47.407-128 105.877-191.21 173.827-191.21 110.617 0 246.519 104.296 407.704 312.889 156.444 199.111 237.037 357.136 241.778 472.494 6.321 154.864-50.568 233.877-172.247 237.037z" />
<glyph unicode="&#xe917;" glyph-name="youtube" horiz-adv-x="1457" d="M1011.858 445.976l-477.597-279.273v562.593l477.597-283.32zM1457.075 186.941v522.119c0 0 0 250.941-250.941 250.941h-955.194c0 0-250.941 0-250.941-250.941v-522.119c0 0 0-250.941 250.941-250.941h955.194c0 0 250.941 0 250.941 250.941z" />
<glyph unicode="&#xe918;" glyph-name="arrow-circle" horiz-adv-x="1041" d="M623.469 661.491c-109.579-232.384-232.384-453.432-391.085-640.472-7.557 5.668-17.004 11.336-24.561 17.004 1.889 7.557 5.668 15.114 9.446 24.561 18.893 11.336 56.679 88.797 88.797 136.030l317.402 462.878zM513.889 648.266c-68.015-51.011-204.044-86.908-290.952-105.801-71.793-15.114-160.59-49.122-158.701 35.897 15.114 7.557 35.897 9.446 43.454 22.672-5.668 5.668-3.779 18.893-3.779 30.229 24.561 24.561 41.565 11.336 66.125 13.225 86.908 7.557 134.14 35.897 211.601 75.572 49.122 24.561 98.244 49.122 145.476 69.904 47.232 22.672 100.133 37.786 154.923 62.347 24.561 11.336 51.011 34.007 75.572 52.9-69.904 35.897-151.144 56.679-236.162 56.679-287.173-1.889-521.446-228.605-521.446-512 0-143.587 60.458-273.948 156.812-366.524 24.561 35.897 47.232 73.683 68.015 107.69 88.797 156.812 211.601 296.62 289.063 457.21v0zM364.635 75.808c17.004 1.889 18.893 20.782 26.45 30.229-9.446-9.446-28.339-9.446-26.45-30.229v0zM880.413 816.413c-24.561-196.487-45.343-426.982-58.568-604.576-1.889-15.114-18.893 7.557-17.004-3.779 1.889-18.893-5.668-22.672 0-35.897-88.797-47.232-86.908 62.347-79.351 149.255 13.225 130.362 62.347 309.845 22.672 430.76-9.446-32.118-28.339-62.347-43.454-96.354 77.461-11.336 35.897-62.347 9.446-115.247-60.458-111.469-115.247-238.052-179.483-317.402 3.779-7.557 13.225-3.779 3.779-13.225-60.458-68.015-88.797-196.487-190.819-245.609 54.79-18.893 113.358-30.229 173.815-30.229 287.173-1.889 521.446 226.716 521.446 510.111-1.889 147.365-62.347 279.616-162.48 372.192v0z" />
<glyph unicode="&#xe919;" glyph-name="arrow-shape" horiz-adv-x="875" d="M743.258 960c-0.167-0.167-0.5-0.333-0.5-0.333s-55.815-46.152-81.807-58.148c-57.815-26.491-115.462-43.319-165.28-67.311-50.317-24.159-103.8-50.65-155.783-76.975-83.473-41.986-133.123-74.143-226.593-81.64-25.325-1.999-44.819 11.829-70.81-14.329 0-12.829-1.833-27.491 4.665-33.656-9.164-14.662-30.823-16.661-47.318-23.992-1.666-91.637 93.636-55.315 169.945-38.321 93.636 20.66 239.589 58.814 311.565 115.296-82.14-175.276-215.097-328.393-311.565-499.837-21.326-37.988-45.152-78.974-71.977-117.628-0.167 0.167-0.167 0.333-0.333 0.333 0 0 0-0.167 0-0.167 56.815-55.815 125.459-99.634 201.768-127.125 0.333 0.167 0.666 0.167 1.166 0.167-0.167 0-0.333 0.167-0.5 0.167 109.131 53.316 140.788 193.27 205.267 268.246 9.497 10.996-1.166 5.498-4.665 14.329 69.644 85.972 128.791 223.427 193.604 346.054 29.99 56.482 72.81 111.964-9.497 124.959 17.494 37.988 37.654 71.477 47.151 105.799 42.653-131.79-9.664-328.726-23.492-471.013-9.33-94.969-9.664-215.263 84.972-163.447-6.498 14.662 2.166 17.161 0 38.487-1.999 13.496 17.494-11.996 18.827 4.832 15.162 194.103 37.155 445.688 62.813 659.452 0 0.666 0 1.166 0.167 1.666-38.987 37.321-83.306 69.144-131.79 94.136z" />
<glyph unicode="&#xe91a;" glyph-name="arro-left-a" horiz-adv-x="314" d="M314.182 940.606l-32.97 19.394-281.212-512 281.212-512 32.97 17.455-269.576 494.545z" />
<glyph unicode="&#xe91b;" glyph-name="arro-right-a" horiz-adv-x="314" d="M0 940.606l34.909 19.394 279.273-512-279.273-512-34.909 17.455 271.515 494.545z" />
</font>
</defs>
</svg>
