<?xml version="1.0" encoding="utf-8"?>
<!-- Generator: Adobe Illustrator 19.2.0, SVG Export Plug-In . SVG Version: 6.00 Build 0)  -->
<svg version="1.1" id="Layer_1" xmlns="http://www.w3.org/2000/svg" xmlns:xlink="http://www.w3.org/1999/xlink" x="0px" y="0px"
	 viewBox="0 0 620 620" style="enable-background:new 0 0 620 620;" xml:space="preserve">
<style type="text/css">
	.st0{fill:#1675A9;}
</style>
<g>
	<path class="st0" d="M488.3,7.7c-0.1,0.1-0.3,0.2-0.3,0.2s-33,27.3-48.4,34.4C405.5,57.9,371.4,67.8,342,82
		c-29.7,14.3-61.4,29.9-92.1,45.5c-49.3,24.8-78.7,43.8-133.9,48.3c-15,1.2-26.5-7-41.9,8.5c0,7.6-1.1,16.2,2.8,19.9
		c-5.4,8.7-18.2,9.8-28,14.2c-1,54.2,55.3,32.7,100.4,22.6c55.3-12.2,141.6-34.8,184.2-68.1c-48.5,103.6-127.1,194.1-184.2,295.4
		c-12.6,22.5-33,56.5-48.9,79.3c-0.1-0.1-0.1-0.2-0.2-0.2v0.1c33.6,33,70.3,52.4,115.4,68.7c0.2-0.1,0.4-0.1,0.7-0.1
		c-0.1,0-0.2-0.1-0.3-0.1c64.5-31.5,93.5-117.6,131.6-161.9c5.6-6.5-0.7-3.2-2.8-8.5c41.2-50.8,76.1-132.1,114.4-204.5
		c17.7-33.4,43-66.2-5.6-73.9c10.3-22.5,22.3-42.2,27.9-62.5c25.2,77.9-5.7,194.3-13.9,278.4c-5.5,56.1-5.7,127.2,50.2,96.6
		c-3.8-8.7,1.3-10.1,0-22.7c-1.2-8,10.3,7.1,11.1-2.9c9-114.7,22-263.4,37.1-389.8c0-0.4,0-0.7,0.1-1C543.2,41.3,517,22.5,488.3,7.7
		z"/>
</g>
</svg>
