<?xml version="1.0" encoding="utf-8"?>
<!-- Generator: Adobe Illustrator 20.1.0, SVG Export Plug-In . SVG Version: 6.00 Build 0)  -->
<svg version="1.1" id="Layer_1" xmlns="http://www.w3.org/2000/svg" xmlns:xlink="http://www.w3.org/1999/xlink" x="0px" y="0px"
	 viewBox="0 0 55.1 54.2" style="enable-background:new 0 0 55.1 54.2;" xml:space="preserve">
<style type="text/css">
	.st0{fill:#FFFFFF;}
</style>
<g>
	<path class="st0" d="M33,15.8c-5.8,12.3-12.3,24-20.7,33.9c-0.4-0.3-0.9-0.6-1.3-0.9c0.1-0.4,0.3-0.8,0.5-1.3c1-0.6,3-4.7,4.7-7.2
		L33,15.8z"/>
	<path class="st0" d="M27.2,16.5c-3.6,2.7-10.8,4.6-15.4,5.6c-3.8,0.8-8.5,2.6-8.4-1.9c0.8-0.4,1.9-0.5,2.3-1.2
		c-0.3-0.3-0.2-1-0.2-1.6c1.3-1.3,2.2-0.6,3.5-0.7c4.6-0.4,7.1-1.9,11.2-4c2.6-1.3,5.2-2.6,7.7-3.7c2.5-1.2,5.3-2,8.2-3.3
		c1.3-0.6,2.7-1.8,4-2.8c-3.7-1.9-8-3-12.5-3C12.4,0,0,12,0,27c0,7.6,3.2,14.5,8.3,19.4c1.3-1.9,2.5-3.9,3.6-5.7
		C16.6,32.4,23.1,25,27.2,16.5L27.2,16.5z"/>
	<path class="st0" d="M19.3,46.8c0.9-0.1,1-1.1,1.4-1.6C20.2,45.7,19.2,45.7,19.3,46.8L19.3,46.8z"/>
	<path class="st0" d="M46.6,7.6c-1.3,10.4-2.4,22.6-3.1,32c-0.1,0.8-1-0.4-0.9,0.2c0.1,1-0.3,1.2,0,1.9c-4.7,2.5-4.6-3.3-4.2-7.9
		c0.7-6.9,3.3-16.4,1.2-22.8c-0.5,1.7-1.5,3.3-2.3,5.1c4.1,0.6,1.9,3.3,0.5,6.1c-3.2,5.9-6.1,12.6-9.5,16.8c0.2,0.4,0.7,0.2,0.2,0.7
		c-3.2,3.6-4.7,10.4-10.1,13c2.9,1,6,1.6,9.2,1.6c15.2,0.1,27.6-12,27.6-27C55.1,19.5,51.9,12.5,46.6,7.6L46.6,7.6z"/>
</g>
</svg>
