<?xml version="1.0" encoding="utf-8"?>
<!-- Generator: Adobe Illustrator 20.1.0, SVG Export Plug-In . SVG Version: 6.00 Build 0)  -->
<svg version="1.1" id="Layer_1" xmlns="http://www.w3.org/2000/svg" xmlns:xlink="http://www.w3.org/1999/xlink" x="0px" y="0px"
	 viewBox="0 0 525.1 614.6" style="enable-background:new 0 0 525.1 614.6;" xml:space="preserve">
<g>
	<path d="M446.1,0c-0.1,0.1-0.3,0.2-0.3,0.2s-33.5,27.7-49.1,34.9c-34.7,15.9-69.3,26-99.2,40.4c-30.2,14.5-62.3,30.4-93.5,46.2
		c-50.1,25.2-79.9,44.5-136,49c-15.2,1.2-26.9-7.1-42.5,8.6c0,7.7-1.1,16.5,2.8,20.2c-5.5,8.8-18.5,10-28.4,14.4
		c-1,55,56.2,33.2,102,23c56.2-12.4,143.8-35.3,187-69.2c-49.3,105.2-129.1,197.1-187,300c-12.8,22.8-27.1,47.4-43.2,70.6
		c-0.1-0.1-0.1-0.2-0.2-0.2c0,0,0,0.1,0,0.1c34.1,33.5,75.3,59.8,121.1,76.3c0.2-0.1,0.4-0.1,0.7-0.1c-0.1,0-0.2-0.1-0.3-0.1
		c65.5-32,84.5-116,123.2-161c5.7-6.6-0.7-3.3-2.8-8.6c41.8-51.6,77.3-134.1,116.2-207.7c18-33.9,43.7-67.2-5.7-75
		c10.5-22.8,22.6-42.9,28.3-63.5c25.6,79.1-5.8,197.3-14.1,282.7c-5.6,57-5.8,129.2,51,98.1c-3.9-8.8,1.3-10.3,0-23.1
		c-1.2-8.1,10.5,7.2,11.3-2.9c9.1-116.5,22.3-267.5,37.7-395.8c0-0.4,0-0.7,0.1-1C501.8,34.1,475.2,15,446.1,0z"/>
</g>
</svg>
