<?xml version="1.0" encoding="utf-8"?>
<!-- Generator: Adobe Illustrator 21.0.0, SVG Export Plug-In . SVG Version: 6.00 Build 0)  -->
<svg version="1.1" id="Layer_1" xmlns="http://www.w3.org/2000/svg" xmlns:xlink="http://www.w3.org/1999/xlink" x="0px" y="0px"
	 viewBox="0 0 528.2 528.1" style="enable-background:new 0 0 528.2 528.1;" xml:space="preserve">
<style type="text/css">
	.st0{fill:#0084AD;}
	.st1{fill:#00BFD6;}
	.st2{fill:#00ACC8;}
	.st3{fill:#0076A9;}
	.st4{fill:#002856;}
	.st5{fill:#003764;}
	.st6{fill:#FFFFFF;}
	.st7{opacity:0.3;fill:#FFFFFF;}
	.st8{opacity:0.3;}
</style>
<g>
	<g>
		<path class="st0" d="M454.8,224.9l-86.9,0c12.9,34.1,7.8,71.6-11.5,100.7l39.3,76.7l85.1,12.7c15-21.5,26.6-45,34.7-70.1
			c10.5-32.6,14.5-66.4,12-100.5c-2.3-31-9.9-60.9-22.8-89.1L454.8,224.9z"/>
		<path class="st1" d="M57.5,99.5l84.8,12.7l39.6,77.3c8.7-9.6,19.3-17.9,31.5-24.2c15-7.7,30.9-11.6,46.7-12.2l39.3-76.7L259.9,0
			c-5.2,0.1-10.3,0.3-15.5,0.7c-35.3,2.6-69.3,12.2-100.9,28.5s-59.3,38.3-82,65.4C60.2,96.2,58.8,97.8,57.5,99.5z"/>
		<path class="st2" d="M316.1,76.5l-39.6,77.3c34.4,3.9,66.4,23.9,84.4,56.1l86.1,0l50.1-69.9c-16.1-30.3-37.5-56.7-63.7-78.6
			c-26.2-21.9-56-38.3-88.6-48.8c-22.2-7.1-45-11.3-68-12.4L316.1,76.5z"/>
		<path class="st3" d="M466.6,433.5c1.4-1.6,2.7-3.3,4-4.9l-84.8-12.7l-39.6-77.3c-8.7,9.6-19.3,17.9-31.5,24.2
			c-15,7.7-30.9,11.6-46.7,12.2l-39.3,76.7l39.4,76.5c5.2-0.1,10.3-0.3,15.5-0.7c35.3-2.6,69.3-12.2,100.9-28.5
			C416.4,482.7,443.9,460.6,466.6,433.5z"/>
		<path class="st4" d="M73.4,303.2l86.9,0c-12.9-34.1-7.8-71.6,11.5-100.7l-39.3-76.7l-85.1-12.7c-15,21.5-26.6,45-34.7,70.1
			c-10.5,32.6-14.5,66.4-12,100.5c2.3,31,9.9,60.9,22.8,89.1L73.4,303.2z"/>
		<path class="st5" d="M212,451.6l39.6-77.3c-34.4-3.9-66.4-23.9-84.4-56.1l-86.1,0L31,388c16.1,30.3,37.5,56.7,63.7,78.6
			c26.2,21.9,56,38.3,88.6,48.8c22.2,7.1,45,11.3,68,12.4L212,451.6z"/>
	</g>
	<g>
		<path class="st6" d="M152.4,58.6H151V47.9h-3.8v-1.2h9v1.2h-3.8V58.6z"/>
		<path class="st6" d="M163.3,58.6l-0.3-1.3h-0.1c-0.4,0.6-0.9,0.9-1.3,1.1s-1,0.3-1.7,0.3c-0.9,0-1.6-0.2-2.1-0.7s-0.8-1.1-0.8-2
			c0-1.8,1.5-2.8,4.4-2.9l1.5,0v-0.6c0-0.7-0.2-1.2-0.5-1.6c-0.3-0.3-0.8-0.5-1.5-0.5c-0.7,0-1.6,0.2-2.5,0.7l-0.4-1
			c0.4-0.2,0.9-0.4,1.5-0.6s1.1-0.2,1.6-0.2c1.1,0,1.9,0.2,2.4,0.7c0.5,0.5,0.8,1.2,0.8,2.3v6.1H163.3z M160.2,57.7
			c0.8,0,1.5-0.2,2-0.7s0.7-1.1,0.7-2v-0.8l-1.4,0.1c-1.1,0-1.9,0.2-2.3,0.5c-0.5,0.3-0.7,0.8-0.7,1.4c0,0.5,0.1,0.9,0.4,1.1
			C159.2,57.6,159.7,57.7,160.2,57.7z"/>
		<path class="st6" d="M171.2,49.5c0.4,0,0.8,0,1.1,0.1l-0.2,1.3c-0.4-0.1-0.7-0.1-1-0.1c-0.7,0-1.3,0.3-1.9,0.9
			c-0.5,0.6-0.8,1.3-0.8,2.2v4.8h-1.4v-9h1.1l0.2,1.7h0.1c0.3-0.6,0.7-1,1.2-1.4C170.1,49.6,170.6,49.5,171.2,49.5z"/>
		<path class="st6" d="M181.3,49.7v0.9l-1.7,0.2c0.2,0.2,0.3,0.4,0.4,0.8c0.1,0.3,0.2,0.7,0.2,1c0,0.9-0.3,1.6-0.9,2.1
			c-0.6,0.5-1.4,0.8-2.5,0.8c-0.3,0-0.5,0-0.8-0.1c-0.6,0.3-0.9,0.7-0.9,1.2c0,0.2,0.1,0.4,0.3,0.5c0.2,0.1,0.5,0.2,1,0.2h1.6
			c1,0,1.7,0.2,2.2,0.6s0.8,1,0.8,1.8c0,1-0.4,1.8-1.2,2.3c-0.8,0.5-2,0.8-3.5,0.8c-1.2,0-2.1-0.2-2.7-0.7c-0.6-0.4-1-1.1-1-1.9
			c0-0.5,0.2-1,0.5-1.4c0.3-0.4,0.8-0.7,1.5-0.8c-0.2-0.1-0.4-0.3-0.6-0.5c-0.2-0.2-0.2-0.5-0.2-0.8c0-0.3,0.1-0.6,0.3-0.9
			s0.5-0.5,0.8-0.7c-0.5-0.2-0.8-0.5-1.1-1s-0.4-1-0.4-1.6c0-1,0.3-1.7,0.9-2.3c0.6-0.5,1.4-0.8,2.5-0.8c0.5,0,0.9,0.1,1.3,0.2
			H181.3z M174.1,60.2c0,0.5,0.2,0.9,0.6,1.1c0.4,0.3,1,0.4,1.8,0.4c1.1,0,2-0.2,2.5-0.5s0.8-0.8,0.8-1.4c0-0.5-0.2-0.8-0.5-1
			c-0.3-0.2-0.9-0.3-1.7-0.3h-1.6c-0.6,0-1.1,0.1-1.4,0.4S174.1,59.6,174.1,60.2z M174.9,52.5c0,0.6,0.2,1.1,0.5,1.4
			c0.4,0.3,0.9,0.5,1.5,0.5c1.3,0,2-0.6,2-1.9c0-1.4-0.7-2-2-2c-0.6,0-1.1,0.2-1.5,0.5S174.9,51.9,174.9,52.5z"/>
		<path class="st6" d="M187,58.8c-1.3,0-2.4-0.4-3.1-1.2c-0.8-0.8-1.2-1.9-1.2-3.4c0-1.4,0.4-2.6,1.1-3.5c0.7-0.9,1.7-1.3,2.9-1.3
			c1.1,0,2,0.4,2.7,1.1s1,1.7,1,2.9v0.9h-6.2c0,1.1,0.3,1.9,0.8,2.4s1.2,0.8,2.1,0.8c1,0,1.9-0.2,2.9-0.6v1.2
			c-0.5,0.2-0.9,0.4-1.4,0.4S187.6,58.8,187,58.8z M186.6,50.6c-0.7,0-1.3,0.2-1.7,0.7c-0.4,0.5-0.7,1.1-0.8,2h4.7
			c0-0.9-0.2-1.5-0.6-2S187.3,50.6,186.6,50.6z"/>
		<path class="st6" d="M195.5,57.7c0.2,0,0.5,0,0.7-0.1s0.4-0.1,0.5-0.1v1c-0.1,0.1-0.4,0.1-0.7,0.2s-0.5,0.1-0.8,0.1
			c-1.7,0-2.6-0.9-2.6-2.7v-5.3h-1.3v-0.7l1.3-0.6l0.6-1.9h0.8v2.1h2.6v1.1H194V56c0,0.5,0.1,1,0.4,1.2
			C194.7,57.5,195,57.7,195.5,57.7z"/>
		<path class="st6" d="M208.4,58.6L204.3,48h-0.1c0.1,0.8,0.1,1.8,0.1,3v7.6h-1.3v-12h2.1l3.8,9.9h0.1l3.8-9.9h2.1v12h-1.4v-7.7
			c0-0.9,0-1.8,0.1-2.9h-0.1l-4.1,10.6H208.4z"/>
		<path class="st6" d="M223.6,58.6l-0.3-1.3h-0.1c-0.4,0.6-0.9,0.9-1.3,1.1s-1,0.3-1.7,0.3c-0.9,0-1.6-0.2-2.1-0.7s-0.8-1.1-0.8-2
			c0-1.8,1.5-2.8,4.4-2.9l1.5,0v-0.6c0-0.7-0.2-1.2-0.5-1.6c-0.3-0.3-0.8-0.5-1.5-0.5c-0.7,0-1.6,0.2-2.5,0.7l-0.4-1
			c0.4-0.2,0.9-0.4,1.5-0.6s1.1-0.2,1.6-0.2c1.1,0,1.9,0.2,2.4,0.7c0.5,0.5,0.8,1.2,0.8,2.3v6.1H223.6z M220.5,57.7
			c0.8,0,1.5-0.2,2-0.7s0.7-1.1,0.7-2v-0.8l-1.4,0.1c-1.1,0-1.9,0.2-2.3,0.5c-0.5,0.3-0.7,0.8-0.7,1.4c0,0.5,0.1,0.9,0.4,1.1
			C219.5,57.6,220,57.7,220.5,57.7z"/>
		<path class="st6" d="M231.5,49.5c0.4,0,0.8,0,1.1,0.1l-0.2,1.3c-0.4-0.1-0.7-0.1-1-0.1c-0.7,0-1.3,0.3-1.9,0.9
			c-0.5,0.6-0.8,1.3-0.8,2.2v4.8h-1.4v-9h1.1l0.2,1.7h0.1c0.3-0.6,0.7-1,1.2-1.4C230.4,49.6,230.9,49.5,231.5,49.5z"/>
		<path class="st6" d="M235.6,54c0.2-0.3,0.6-0.8,1.1-1.3l2.9-3.1h1.6l-3.6,3.8l3.9,5.2h-1.6l-3.2-4.2l-1,0.9v3.4h-1.3V45.9h1.3v6.8
			C235.6,52.9,235.6,53.4,235.6,54L235.6,54z"/>
		<path class="st6" d="M246.9,58.8c-1.3,0-2.4-0.4-3.1-1.2c-0.8-0.8-1.2-1.9-1.2-3.4c0-1.4,0.4-2.6,1.1-3.5c0.7-0.9,1.7-1.3,2.9-1.3
			c1.1,0,2,0.4,2.7,1.1s1,1.7,1,2.9v0.9H244c0,1.1,0.3,1.9,0.8,2.4s1.2,0.8,2.1,0.8c1,0,1.9-0.2,2.9-0.6v1.2
			c-0.5,0.2-0.9,0.4-1.4,0.4S247.5,58.8,246.9,58.8z M246.5,50.6c-0.7,0-1.3,0.2-1.7,0.7c-0.4,0.5-0.7,1.1-0.8,2h4.7
			c0-0.9-0.2-1.5-0.6-2S247.2,50.6,246.5,50.6z"/>
		<path class="st6" d="M255.4,57.7c0.2,0,0.5,0,0.7-0.1c0.2,0,0.4-0.1,0.5-0.1v1c-0.1,0.1-0.4,0.1-0.7,0.2c-0.3,0-0.5,0.1-0.8,0.1
			c-1.7,0-2.6-0.9-2.6-2.7v-5.3h-1.3v-0.7l1.3-0.6l0.6-1.9h0.8v2.1h2.6v1.1H254V56c0,0.5,0.1,1,0.4,1.2
			C254.6,57.5,255,57.7,255.4,57.7z"/>
		<path class="st6" d="M181.7,78.8l-1.5-3.8h-4.8l-1.5,3.8h-1.4l4.7-12h1.2l4.7,12H181.7z M179.8,73.7l-1.4-3.7
			c-0.2-0.5-0.4-1-0.6-1.7c-0.1,0.5-0.3,1.1-0.5,1.7l-1.4,3.7H179.8z"/>
		<path class="st6" d="M190.8,78.8V73c0-0.7-0.2-1.3-0.5-1.6c-0.3-0.4-0.9-0.5-1.6-0.5c-0.9,0-1.6,0.3-2.1,0.8s-0.7,1.3-0.7,2.5v4.7
			h-1.4v-9h1.1l0.2,1.2h0.1c0.3-0.4,0.7-0.8,1.2-1c0.5-0.2,1.1-0.4,1.7-0.4c1.1,0,1.9,0.3,2.4,0.8c0.5,0.5,0.8,1.4,0.8,2.5v5.9
			H190.8z"/>
		<path class="st6" d="M200.5,78.8l-0.3-1.3h-0.1c-0.4,0.6-0.9,0.9-1.3,1.1s-1,0.3-1.7,0.3c-0.9,0-1.6-0.2-2.1-0.7s-0.8-1.1-0.8-2
			c0-1.8,1.5-2.8,4.4-2.9l1.5,0v-0.6c0-0.7-0.2-1.2-0.5-1.6c-0.3-0.3-0.8-0.5-1.5-0.5c-0.7,0-1.6,0.2-2.5,0.7l-0.4-1
			c0.4-0.2,0.9-0.4,1.5-0.6s1.1-0.2,1.6-0.2c1.1,0,1.9,0.2,2.4,0.7c0.5,0.5,0.8,1.2,0.8,2.3v6.1H200.5z M197.4,77.8
			c0.8,0,1.5-0.2,2-0.7s0.7-1.1,0.7-2v-0.8l-1.4,0.1c-1.1,0-1.9,0.2-2.3,0.5c-0.5,0.3-0.7,0.8-0.7,1.4c0,0.5,0.1,0.9,0.4,1.1
			C196.4,77.7,196.8,77.8,197.4,77.8z"/>
		<path class="st6" d="M205.6,78.8h-1.4V66h1.4V78.8z"/>
		<path class="st6" d="M207.1,69.8h1.5l2,5.1c0.4,1.2,0.7,2,0.8,2.5h0.1c0.1-0.3,0.2-0.8,0.4-1.4c0.2-0.7,1-2.8,2.2-6.2h1.5
			l-3.9,10.2c-0.4,1-0.8,1.7-1.3,2.2s-1.1,0.6-1.9,0.6c-0.4,0-0.8,0-1.2-0.1v-1.1c0.3,0.1,0.6,0.1,1,0.1c0.9,0,1.6-0.5,2-1.6
			l0.5-1.3L207.1,69.8z"/>
		<path class="st6" d="M222.8,76.4c0,0.8-0.3,1.5-0.9,1.9c-0.6,0.5-1.5,0.7-2.6,0.7c-1.2,0-2.1-0.2-2.8-0.6v-1.3
			c0.4,0.2,0.9,0.4,1.4,0.5s1,0.2,1.4,0.2c0.7,0,1.3-0.1,1.6-0.3s0.6-0.6,0.6-1c0-0.4-0.2-0.6-0.5-0.9s-0.9-0.5-1.8-0.9
			c-0.8-0.3-1.4-0.6-1.8-0.8c-0.4-0.2-0.6-0.5-0.8-0.8c-0.2-0.3-0.3-0.6-0.3-1.1c0-0.7,0.3-1.3,0.9-1.7s1.4-0.6,2.5-0.6
			c1,0,1.9,0.2,2.8,0.6l-0.5,1.1c-0.9-0.4-1.7-0.6-2.5-0.6c-0.6,0-1.1,0.1-1.5,0.3c-0.3,0.2-0.5,0.5-0.5,0.8c0,0.2,0.1,0.4,0.2,0.6
			c0.1,0.2,0.3,0.3,0.6,0.5c0.3,0.2,0.8,0.4,1.6,0.7c1.1,0.4,1.8,0.8,2.2,1.2C222.6,75.3,222.8,75.8,222.8,76.4z"/>
		<path class="st6" d="M224.9,67.4c0-0.3,0.1-0.5,0.2-0.7c0.2-0.1,0.3-0.2,0.6-0.2c0.2,0,0.4,0.1,0.6,0.2c0.2,0.1,0.2,0.4,0.2,0.7
			c0,0.3-0.1,0.5-0.2,0.7c-0.2,0.2-0.3,0.2-0.6,0.2c-0.2,0-0.4-0.1-0.6-0.2C225,67.9,224.9,67.7,224.9,67.4z M226.4,78.8H225v-9h1.4
			V78.8z"/>
		<path class="st6" d="M235.1,76.4c0,0.8-0.3,1.5-0.9,1.9c-0.6,0.5-1.5,0.7-2.6,0.7c-1.2,0-2.1-0.2-2.8-0.6v-1.3
			c0.4,0.2,0.9,0.4,1.4,0.5s1,0.2,1.4,0.2c0.7,0,1.3-0.1,1.6-0.3s0.6-0.6,0.6-1c0-0.4-0.2-0.6-0.5-0.9s-0.9-0.5-1.8-0.9
			c-0.8-0.3-1.4-0.6-1.8-0.8c-0.4-0.2-0.6-0.5-0.8-0.8c-0.2-0.3-0.3-0.6-0.3-1.1c0-0.7,0.3-1.3,0.9-1.7s1.4-0.6,2.5-0.6
			c1,0,1.9,0.2,2.8,0.6l-0.5,1.1c-0.9-0.4-1.7-0.6-2.5-0.6c-0.6,0-1.1,0.1-1.5,0.3c-0.3,0.2-0.5,0.5-0.5,0.8c0,0.2,0.1,0.4,0.2,0.6
			c0.1,0.2,0.3,0.3,0.6,0.5c0.3,0.2,0.8,0.4,1.6,0.7c1.1,0.4,1.8,0.8,2.2,1.2C234.9,75.3,235.1,75.8,235.1,76.4z"/>
	</g>
	<g>
		<path class="st6" d="M403,287.4v5h-1.4v-12h3.3c1.5,0,2.6,0.3,3.3,0.8s1.1,1.4,1.1,2.5c0,1.6-0.8,2.7-2.4,3.2l3.3,5.4h-1.6l-2.9-5
			H403z M403,286.2h1.9c1,0,1.7-0.2,2.2-0.6s0.7-1,0.7-1.8c0-0.8-0.2-1.4-0.7-1.7c-0.5-0.3-1.2-0.5-2.3-0.5H403V286.2z"/>
		<path class="st6" d="M415.5,292.5c-1.3,0-2.4-0.4-3.1-1.2c-0.8-0.8-1.2-1.9-1.2-3.4c0-1.4,0.4-2.6,1.1-3.5s1.7-1.3,2.9-1.3
			c1.1,0,2,0.4,2.7,1.1s1,1.7,1,2.9v0.9h-6.2c0,1.1,0.3,1.9,0.8,2.4s1.2,0.8,2.1,0.8c1,0,1.9-0.2,2.9-0.6v1.2
			c-0.5,0.2-0.9,0.4-1.4,0.4C416.7,292.5,416.2,292.5,415.5,292.5z M415.2,284.3c-0.7,0-1.3,0.2-1.7,0.7c-0.4,0.5-0.7,1.1-0.8,2h4.7
			c0-0.9-0.2-1.5-0.6-2C416.4,284.6,415.9,284.3,415.2,284.3z"/>
		<path class="st6" d="M422.5,292.4h-1.4v-12.8h1.4V292.4z"/>
		<path class="st6" d="M431,292.4l-0.3-1.3h-0.1c-0.4,0.6-0.9,0.9-1.3,1.1c-0.4,0.2-1,0.3-1.7,0.3c-0.9,0-1.6-0.2-2.1-0.7
			c-0.5-0.5-0.8-1.1-0.8-2c0-1.8,1.5-2.8,4.4-2.9l1.5,0v-0.6c0-0.7-0.2-1.2-0.5-1.6c-0.3-0.3-0.8-0.5-1.5-0.5
			c-0.7,0-1.6,0.2-2.5,0.7l-0.4-1c0.4-0.2,0.9-0.4,1.5-0.6s1.1-0.2,1.6-0.2c1.1,0,1.9,0.2,2.4,0.7c0.5,0.5,0.8,1.2,0.8,2.3v6.1H431z
			 M427.9,291.4c0.8,0,1.5-0.2,2-0.7s0.7-1.1,0.7-2v-0.8l-1.4,0.1c-1.1,0-1.9,0.2-2.3,0.5c-0.5,0.3-0.7,0.8-0.7,1.4
			c0,0.5,0.1,0.9,0.4,1.1C426.9,291.3,427.3,291.4,427.9,291.4z"/>
		<path class="st6" d="M437.7,291.4c0.2,0,0.5,0,0.7-0.1c0.2,0,0.4-0.1,0.5-0.1v1c-0.1,0.1-0.4,0.1-0.7,0.2c-0.3,0-0.5,0.1-0.8,0.1
			c-1.7,0-2.6-0.9-2.6-2.7v-5.3h-1.3v-0.7l1.3-0.6l0.6-1.9h0.8v2.1h2.6v1.1h-2.6v5.3c0,0.5,0.1,1,0.4,1.2
			C436.9,291.3,437.2,291.4,437.7,291.4z"/>
		<path class="st6" d="M440.6,280.9c0-0.3,0.1-0.5,0.2-0.7c0.2-0.1,0.3-0.2,0.6-0.2c0.2,0,0.4,0.1,0.6,0.2c0.2,0.1,0.2,0.4,0.2,0.7
			c0,0.3-0.1,0.5-0.2,0.7c-0.2,0.2-0.3,0.2-0.6,0.2c-0.2,0-0.4-0.1-0.6-0.2C440.7,281.5,440.6,281.2,440.6,280.9z M442.1,292.4h-1.4
			v-9h1.4V292.4z"/>
		<path class="st6" d="M452.7,287.9c0,1.5-0.4,2.6-1.1,3.4c-0.7,0.8-1.8,1.2-3.1,1.2c-0.8,0-1.5-0.2-2.1-0.6
			c-0.6-0.4-1.1-0.9-1.4-1.6c-0.3-0.7-0.5-1.5-0.5-2.5c0-1.5,0.4-2.6,1.1-3.4c0.7-0.8,1.8-1.2,3.1-1.2c1.3,0,2.3,0.4,3,1.3
			C452.3,285.3,452.7,286.4,452.7,287.9z M445.9,287.9c0,1.1,0.2,2,0.7,2.6s1.1,0.9,2,0.9s1.6-0.3,2-0.9c0.5-0.6,0.7-1.5,0.7-2.6
			c0-1.1-0.2-2-0.7-2.6c-0.5-0.6-1.1-0.9-2-0.9c-0.9,0-1.6,0.3-2,0.9C446.1,285.8,445.9,286.7,445.9,287.9z"/>
		<path class="st6" d="M461.3,292.4v-5.8c0-0.7-0.2-1.3-0.5-1.6c-0.3-0.4-0.9-0.5-1.6-0.5c-0.9,0-1.6,0.3-2.1,0.8s-0.7,1.3-0.7,2.5
			v4.7h-1.4v-9h1.1l0.2,1.2h0.1c0.3-0.4,0.7-0.8,1.2-1c0.5-0.2,1.1-0.4,1.7-0.4c1.1,0,1.9,0.3,2.4,0.8s0.8,1.4,0.8,2.5v5.9H461.3z"
			/>
		<path class="st6" d="M471.2,289.9c0,0.8-0.3,1.5-0.9,1.9c-0.6,0.5-1.5,0.7-2.6,0.7c-1.2,0-2.1-0.2-2.8-0.6v-1.3
			c0.4,0.2,0.9,0.4,1.4,0.5s1,0.2,1.4,0.2c0.7,0,1.3-0.1,1.6-0.3c0.4-0.2,0.6-0.6,0.6-1c0-0.4-0.2-0.6-0.5-0.9s-0.9-0.5-1.8-0.9
			c-0.8-0.3-1.4-0.6-1.8-0.8c-0.4-0.2-0.6-0.5-0.8-0.8s-0.3-0.6-0.3-1.1c0-0.7,0.3-1.3,0.9-1.7s1.4-0.6,2.5-0.6c1,0,1.9,0.2,2.8,0.6
			l-0.5,1.1c-0.9-0.4-1.7-0.6-2.5-0.6c-0.6,0-1.1,0.1-1.5,0.3s-0.5,0.5-0.5,0.8c0,0.2,0.1,0.4,0.2,0.6s0.3,0.3,0.6,0.5
			c0.3,0.2,0.8,0.4,1.6,0.7c1.1,0.4,1.8,0.8,2.2,1.2C471,288.8,471.2,289.3,471.2,289.9z"/>
		<path class="st6" d="M479.6,292.4v-5.8c0-0.7-0.2-1.3-0.5-1.6c-0.3-0.4-0.9-0.5-1.6-0.5c-0.9,0-1.6,0.3-2.1,0.8
			c-0.4,0.5-0.7,1.4-0.7,2.5v4.7h-1.4v-12.8h1.4v3.9c0,0.5,0,0.9-0.1,1.2h0.1c0.3-0.4,0.6-0.8,1.1-1c0.5-0.2,1.1-0.4,1.7-0.4
			c1.1,0,1.9,0.3,2.5,0.8c0.5,0.5,0.8,1.4,0.8,2.5v5.9H479.6z"/>
		<path class="st6" d="M483.6,280.9c0-0.3,0.1-0.5,0.2-0.7c0.2-0.1,0.3-0.2,0.6-0.2c0.2,0,0.4,0.1,0.6,0.2c0.2,0.1,0.2,0.4,0.2,0.7
			c0,0.3-0.1,0.5-0.2,0.7c-0.2,0.2-0.3,0.2-0.6,0.2c-0.2,0-0.4-0.1-0.6-0.2C483.7,281.5,483.6,281.2,483.6,280.9z M485.1,292.4h-1.4
			v-9h1.4V292.4z"/>
		<path class="st6" d="M492.2,292.5c-0.6,0-1.1-0.1-1.6-0.3s-0.9-0.5-1.2-1h-0.1c0.1,0.5,0.1,1,0.1,1.5v3.7H488v-13h1.1l0.2,1.2h0.1
			c0.4-0.5,0.8-0.8,1.2-1.1c0.5-0.2,1-0.3,1.6-0.3c1.2,0,2.1,0.4,2.8,1.2c0.6,0.8,1,2,1,3.4c0,1.5-0.3,2.6-1,3.4
			S493.3,292.5,492.2,292.5z M492,284.4c-0.9,0-1.6,0.3-2,0.8s-0.6,1.3-0.6,2.4v0.3c0,1.3,0.2,2.2,0.6,2.7c0.4,0.5,1.1,0.8,2,0.8
			c0.8,0,1.4-0.3,1.8-0.9s0.7-1.5,0.7-2.6c0-1.1-0.2-2-0.7-2.6S492.8,284.4,492,284.4z"/>
		<path class="st6" d="M418.1,300.5h3.4c1.6,0,2.7,0.2,3.5,0.7c0.7,0.5,1.1,1.2,1.1,2.3c0,0.7-0.2,1.3-0.6,1.8
			c-0.4,0.5-1,0.8-1.7,0.9v0.1c1.8,0.3,2.7,1.3,2.7,2.9c0,1.1-0.4,1.9-1.1,2.5s-1.7,0.9-3,0.9h-4.2V300.5z M419.5,305.7h2.3
			c1,0,1.7-0.2,2.1-0.5c0.4-0.3,0.6-0.8,0.6-1.6c0-0.7-0.2-1.2-0.7-1.5s-1.2-0.4-2.3-0.4h-2.1V305.7z M419.5,306.8v4.5h2.5
			c1,0,1.7-0.2,2.2-0.6c0.5-0.4,0.7-1,0.7-1.8c0-0.7-0.2-1.3-0.8-1.6c-0.5-0.4-1.3-0.5-2.3-0.5H419.5z"/>
		<path class="st6" d="M430.1,303.5v5.8c0,0.7,0.2,1.3,0.5,1.6s0.9,0.5,1.6,0.5c0.9,0,1.6-0.3,2.1-0.8c0.4-0.5,0.7-1.4,0.7-2.5v-4.7
			h1.4v9h-1.1l-0.2-1.2h-0.1c-0.3,0.4-0.7,0.8-1.2,1c-0.5,0.2-1.1,0.4-1.7,0.4c-1.1,0-1.9-0.3-2.5-0.8c-0.5-0.5-0.8-1.4-0.8-2.5
			v-5.9H430.1z"/>
		<path class="st6" d="M439,301.1c0-0.3,0.1-0.5,0.2-0.7c0.2-0.1,0.3-0.2,0.6-0.2c0.2,0,0.4,0.1,0.6,0.2c0.2,0.1,0.2,0.4,0.2,0.7
			s-0.1,0.5-0.2,0.7c-0.2,0.2-0.3,0.2-0.6,0.2c-0.2,0-0.4-0.1-0.6-0.2C439.1,301.6,439,301.4,439,301.1z M440.5,312.5h-1.4v-9h1.4
			V312.5z"/>
		<path class="st6" d="M444.8,312.5h-1.4v-12.8h1.4V312.5z"/>
		<path class="st6" d="M453.8,311.3L453.8,311.3c-0.7,0.9-1.6,1.4-2.9,1.4c-1.2,0-2.1-0.4-2.7-1.2c-0.7-0.8-1-1.9-1-3.4
			s0.3-2.6,1-3.5s1.6-1.2,2.7-1.2c1.2,0,2.2,0.4,2.8,1.3h0.1l-0.1-0.6l0-0.6v-3.7h1.4v12.8h-1.1L453.8,311.3z M451,311.5
			c0.9,0,1.6-0.3,2-0.8c0.4-0.5,0.6-1.3,0.6-2.4v-0.3c0-1.3-0.2-2.2-0.6-2.7c-0.4-0.5-1.1-0.8-2-0.8c-0.8,0-1.4,0.3-1.8,0.9
			c-0.4,0.6-0.6,1.5-0.6,2.6c0,1.1,0.2,2,0.6,2.6C449.6,311.3,450.2,311.5,451,311.5z"/>
		<path class="st6" d="M457.8,301.1c0-0.3,0.1-0.5,0.2-0.7c0.2-0.1,0.3-0.2,0.6-0.2c0.2,0,0.4,0.1,0.6,0.2c0.2,0.1,0.2,0.4,0.2,0.7
			s-0.1,0.5-0.2,0.7c-0.2,0.2-0.3,0.2-0.6,0.2c-0.2,0-0.4-0.1-0.6-0.2C457.9,301.6,457.8,301.4,457.8,301.1z M459.3,312.5h-1.4v-9
			h1.4V312.5z"/>
		<path class="st6" d="M468.3,312.5v-5.8c0-0.7-0.2-1.3-0.5-1.6s-0.9-0.5-1.6-0.5c-0.9,0-1.6,0.3-2.1,0.8s-0.7,1.3-0.7,2.5v4.7h-1.4
			v-9h1.1l0.2,1.2h0.1c0.3-0.4,0.7-0.8,1.2-1c0.5-0.2,1.1-0.4,1.7-0.4c1.1,0,1.9,0.3,2.4,0.8c0.5,0.5,0.8,1.4,0.8,2.5v5.9H468.3z"/>
		<path class="st6" d="M479.9,303.5v0.9l-1.7,0.2c0.2,0.2,0.3,0.4,0.4,0.8c0.1,0.3,0.2,0.7,0.2,1c0,0.9-0.3,1.6-0.9,2.1
			c-0.6,0.5-1.4,0.8-2.5,0.8c-0.3,0-0.5,0-0.8-0.1c-0.6,0.3-0.9,0.7-0.9,1.2c0,0.2,0.1,0.4,0.3,0.5c0.2,0.1,0.5,0.2,1,0.2h1.6
			c1,0,1.7,0.2,2.2,0.6s0.8,1,0.8,1.8c0,1-0.4,1.8-1.2,2.3c-0.8,0.5-2,0.8-3.5,0.8c-1.2,0-2.1-0.2-2.7-0.7c-0.6-0.4-1-1.1-1-1.9
			c0-0.5,0.2-1,0.5-1.4c0.3-0.4,0.8-0.7,1.5-0.8c-0.2-0.1-0.4-0.3-0.6-0.5c-0.2-0.2-0.2-0.5-0.2-0.8c0-0.3,0.1-0.6,0.3-0.9
			s0.5-0.5,0.8-0.7c-0.5-0.2-0.8-0.5-1.1-1c-0.3-0.5-0.4-1-0.4-1.6c0-1,0.3-1.7,0.9-2.3c0.6-0.5,1.4-0.8,2.5-0.8
			c0.5,0,0.9,0.1,1.3,0.2H479.9z M472.7,314c0,0.5,0.2,0.9,0.6,1.1s1,0.4,1.8,0.4c1.1,0,2-0.2,2.5-0.5s0.8-0.8,0.8-1.4
			c0-0.5-0.2-0.8-0.5-1s-0.9-0.3-1.7-0.3h-1.6c-0.6,0-1.1,0.1-1.4,0.4C472.9,313.1,472.7,313.5,472.7,314z M473.4,306.4
			c0,0.6,0.2,1.1,0.5,1.4c0.4,0.3,0.9,0.5,1.5,0.5c1.3,0,2-0.6,2-1.9c0-1.4-0.7-2-2-2c-0.6,0-1.1,0.2-1.5,0.5
			S473.4,305.7,473.4,306.4z"/>
	</g>
	<g>
		<path class="st6" d="M274.3,418.1c0,1.1-0.4,1.9-1.1,2.5s-1.8,0.9-3.1,0.9c-1.4,0-2.5-0.2-3.3-0.5v-1.3c0.5,0.2,1,0.4,1.6,0.5
			c0.6,0.1,1.2,0.2,1.7,0.2c0.9,0,1.6-0.2,2.1-0.5c0.5-0.4,0.7-0.8,0.7-1.5c0-0.4-0.1-0.8-0.2-1c-0.2-0.3-0.4-0.5-0.8-0.7
			c-0.4-0.2-1-0.5-1.8-0.8c-1.1-0.4-1.9-0.9-2.4-1.4s-0.7-1.3-0.7-2.1c0-0.9,0.3-1.7,1-2.2c0.7-0.5,1.6-0.8,2.8-0.8
			c1.2,0,2.3,0.2,3.3,0.7l-0.4,1.2c-1-0.4-2-0.6-2.9-0.6c-0.7,0-1.3,0.2-1.7,0.5c-0.4,0.3-0.6,0.8-0.6,1.3c0,0.4,0.1,0.8,0.2,1
			s0.4,0.5,0.8,0.7c0.4,0.2,0.9,0.5,1.7,0.7c1.3,0.4,2.1,0.9,2.6,1.4C274.1,416.7,274.3,417.3,274.3,418.1z"/>
		<path class="st6" d="M282.1,421.3l-0.3-1.3h-0.1c-0.4,0.6-0.9,0.9-1.3,1.1c-0.4,0.2-1,0.3-1.7,0.3c-0.9,0-1.6-0.2-2.1-0.7
			c-0.5-0.5-0.8-1.1-0.8-2c0-1.8,1.5-2.8,4.4-2.9l1.5,0v-0.6c0-0.7-0.2-1.2-0.5-1.6c-0.3-0.3-0.8-0.5-1.5-0.5
			c-0.7,0-1.6,0.2-2.5,0.7l-0.4-1c0.4-0.2,0.9-0.4,1.5-0.6c0.5-0.1,1.1-0.2,1.6-0.2c1.1,0,1.9,0.2,2.4,0.7c0.5,0.5,0.8,1.2,0.8,2.3
			v6.1H282.1z M279,420.4c0.8,0,1.5-0.2,2-0.7c0.5-0.5,0.7-1.1,0.7-2v-0.8l-1.4,0.1c-1.1,0-1.9,0.2-2.3,0.5
			c-0.5,0.3-0.7,0.8-0.7,1.4c0,0.5,0.1,0.9,0.4,1.1C278,420.3,278.5,420.4,279,420.4z"/>
		<path class="st6" d="M287.2,421.3h-1.4v-12.8h1.4V421.3z"/>
		<path class="st6" d="M293.9,421.5c-1.3,0-2.4-0.4-3.1-1.2c-0.8-0.8-1.2-1.9-1.2-3.4c0-1.4,0.4-2.6,1.1-3.5s1.7-1.3,2.9-1.3
			c1.1,0,2,0.4,2.7,1.1s1,1.7,1,2.9v0.9H291c0,1.1,0.3,1.9,0.8,2.4s1.2,0.8,2.1,0.8c1,0,1.9-0.2,2.9-0.6v1.2
			c-0.5,0.2-0.9,0.4-1.4,0.4C295.1,421.5,294.5,421.5,293.9,421.5z M293.6,413.3c-0.7,0-1.3,0.2-1.7,0.7c-0.4,0.5-0.7,1.1-0.8,2h4.7
			c0-0.9-0.2-1.5-0.6-2C294.8,413.6,294.3,413.3,293.6,413.3z"/>
		<path class="st6" d="M305.4,418.9c0,0.8-0.3,1.5-0.9,1.9c-0.6,0.5-1.5,0.7-2.6,0.7c-1.2,0-2.1-0.2-2.8-0.6v-1.3
			c0.4,0.2,0.9,0.4,1.4,0.5s1,0.2,1.4,0.2c0.7,0,1.3-0.1,1.6-0.3c0.4-0.2,0.6-0.6,0.6-1c0-0.4-0.2-0.6-0.5-0.9s-0.9-0.5-1.8-0.9
			c-0.8-0.3-1.4-0.6-1.8-0.8c-0.4-0.2-0.6-0.5-0.8-0.8c-0.2-0.3-0.3-0.6-0.3-1.1c0-0.7,0.3-1.3,0.9-1.7c0.6-0.4,1.4-0.6,2.5-0.6
			c1,0,1.9,0.2,2.8,0.6l-0.5,1.1c-0.9-0.4-1.7-0.6-2.5-0.6c-0.6,0-1.1,0.1-1.5,0.3s-0.5,0.5-0.5,0.8c0,0.2,0.1,0.4,0.2,0.6
			s0.3,0.3,0.6,0.5c0.3,0.2,0.8,0.4,1.6,0.7c1.1,0.4,1.8,0.8,2.2,1.2C305.2,417.8,305.4,418.3,305.4,418.9z"/>
		<path class="st6" d="M319.7,412.8c0,1.2-0.4,2.1-1.2,2.8c-0.8,0.7-2,1-3.6,1h-1.4v4.7h-1.4v-12h3.1
			C318.2,409.3,319.7,410.5,319.7,412.8z M313.5,415.4h1.3c1.2,0,2.1-0.2,2.7-0.6c0.6-0.4,0.8-1,0.8-1.9c0-0.8-0.3-1.4-0.8-1.8
			c-0.5-0.4-1.3-0.6-2.4-0.6h-1.6V415.4z"/>
		<path class="st6" d="M323.3,412.3v5.8c0,0.7,0.2,1.3,0.5,1.6c0.3,0.4,0.9,0.5,1.6,0.5c0.9,0,1.6-0.3,2.1-0.8
			c0.4-0.5,0.7-1.4,0.7-2.5v-4.7h1.4v9h-1.1l-0.2-1.2h-0.1c-0.3,0.4-0.7,0.8-1.2,1s-1.1,0.4-1.7,0.4c-1.1,0-1.9-0.3-2.5-0.8
			c-0.5-0.5-0.8-1.4-0.8-2.5v-5.9H323.3z"/>
		<path class="st6" d="M336.5,412.2c0.4,0,0.8,0,1.1,0.1l-0.2,1.3c-0.4-0.1-0.7-0.1-1-0.1c-0.7,0-1.3,0.3-1.9,0.9s-0.8,1.3-0.8,2.2
			v4.8h-1.4v-9h1.1l0.2,1.7h0.1c0.3-0.6,0.7-1,1.2-1.4C335.4,412.3,335.9,412.2,336.5,412.2z"/>
		<path class="st6" d="M345,418.9c0,0.8-0.3,1.5-0.9,1.9c-0.6,0.5-1.5,0.7-2.6,0.7c-1.2,0-2.1-0.2-2.8-0.6v-1.3
			c0.4,0.2,0.9,0.4,1.4,0.5s1,0.2,1.4,0.2c0.7,0,1.3-0.1,1.6-0.3c0.4-0.2,0.6-0.6,0.6-1c0-0.4-0.2-0.6-0.5-0.9s-0.9-0.5-1.8-0.9
			c-0.8-0.3-1.4-0.6-1.8-0.8s-0.6-0.5-0.8-0.8c-0.2-0.3-0.3-0.6-0.3-1.1c0-0.7,0.3-1.3,0.9-1.7c0.6-0.4,1.4-0.6,2.5-0.6
			c1,0,1.9,0.2,2.8,0.6l-0.5,1.1c-0.9-0.4-1.7-0.6-2.5-0.6c-0.6,0-1.1,0.1-1.5,0.3s-0.5,0.5-0.5,0.8c0,0.2,0.1,0.4,0.2,0.6
			s0.3,0.3,0.6,0.5c0.3,0.2,0.8,0.4,1.6,0.7c1.1,0.4,1.8,0.8,2.2,1.2C344.8,417.8,345,418.3,345,418.9z"/>
		<path class="st6" d="M348.5,412.3v5.8c0,0.7,0.2,1.3,0.5,1.6c0.3,0.4,0.9,0.5,1.6,0.5c0.9,0,1.6-0.3,2.1-0.8
			c0.4-0.5,0.7-1.4,0.7-2.5v-4.7h1.4v9h-1.1l-0.2-1.2h-0.1c-0.3,0.4-0.7,0.8-1.2,1s-1.1,0.4-1.7,0.4c-1.1,0-1.9-0.3-2.5-0.8
			c-0.5-0.5-0.8-1.4-0.8-2.5v-5.9H348.5z"/>
		<path class="st6" d="M357.4,409.9c0-0.3,0.1-0.5,0.2-0.7s0.3-0.2,0.6-0.2c0.2,0,0.4,0.1,0.6,0.2c0.2,0.1,0.2,0.4,0.2,0.7
			c0,0.3-0.1,0.5-0.2,0.7c-0.2,0.2-0.3,0.2-0.6,0.2c-0.2,0-0.4-0.1-0.6-0.2S357.4,410.2,357.4,409.9z M358.9,421.3h-1.4v-9h1.4
			V421.3z"/>
		<path class="st6" d="M364.7,420.4c0.2,0,0.5,0,0.7-0.1c0.2,0,0.4-0.1,0.5-0.1v1c-0.1,0.1-0.4,0.1-0.7,0.2c-0.3,0-0.5,0.1-0.8,0.1
			c-1.7,0-2.6-0.9-2.6-2.7v-5.3h-1.3v-0.7l1.3-0.6l0.6-1.9h0.8v2.1h2.6v1.1h-2.6v5.3c0,0.5,0.1,1,0.4,1.2S364.3,420.4,364.7,420.4z"
			/>
		<path class="st6" d="M280.3,438.4c0-0.7,0.2-1.3,0.6-1.9c0.4-0.5,1.1-1.1,2-1.7c-0.5-0.5-0.8-0.9-0.9-1.2
			c-0.2-0.3-0.3-0.5-0.4-0.8c-0.1-0.3-0.1-0.6-0.1-0.9c0-0.8,0.3-1.5,0.8-1.9c0.5-0.5,1.3-0.7,2.2-0.7c0.9,0,1.6,0.2,2.1,0.7
			c0.5,0.5,0.8,1.1,0.8,1.9c0,0.6-0.2,1.1-0.6,1.6s-1,1-1.8,1.5l3.3,3.2c0.3-0.3,0.6-0.7,0.7-1.2c0.2-0.5,0.3-1,0.5-1.5h1.4
			c-0.4,1.6-0.9,2.8-1.7,3.6l2.5,2.4h-1.9l-1.5-1.5c-0.6,0.6-1.3,1-2,1.2c-0.7,0.3-1.4,0.4-2.2,0.4c-1.2,0-2.1-0.3-2.7-0.9
			C280.6,440.2,280.3,439.4,280.3,438.4z M284,440.4c1.3,0,2.4-0.4,3.3-1.3l-3.6-3.5c-0.6,0.4-1,0.7-1.3,0.9
			c-0.3,0.2-0.4,0.5-0.6,0.8s-0.2,0.6-0.2,1c0,0.6,0.2,1.1,0.6,1.5C282.8,440.3,283.3,440.4,284,440.4z M282.8,431.9
			c0,0.4,0.1,0.7,0.3,1.1c0.2,0.3,0.5,0.8,1,1.2c0.7-0.4,1.2-0.8,1.5-1.1c0.3-0.3,0.4-0.7,0.4-1.2c0-0.4-0.1-0.8-0.4-1
			c-0.3-0.3-0.7-0.4-1.1-0.4c-0.5,0-0.9,0.1-1.2,0.4C282.9,431.1,282.8,431.5,282.8,431.9z"/>
		<path class="st6" d="M302.8,430.6c-1.3,0-2.4,0.4-3.1,1.3c-0.8,0.9-1.1,2.1-1.1,3.6c0,1.6,0.4,2.8,1.1,3.6
			c0.7,0.9,1.8,1.3,3.1,1.3c0.8,0,1.8-0.2,2.9-0.5v1.2c-0.8,0.3-1.9,0.5-3.1,0.5c-1.8,0-3.1-0.5-4.1-1.6c-1-1.1-1.4-2.6-1.4-4.6
			c0-1.2,0.2-2.3,0.7-3.2c0.5-0.9,1.1-1.6,2-2.1c0.9-0.5,1.9-0.8,3.1-0.8c1.3,0,2.4,0.2,3.3,0.7l-0.6,1.2
			C304.6,430.8,303.7,430.6,302.8,430.6z"/>
		<path class="st6" d="M309.4,441.5H308v-12.8h1.4V441.5z"/>
		<path class="st6" d="M320.1,437c0,1.5-0.4,2.6-1.1,3.4s-1.8,1.2-3.1,1.2c-0.8,0-1.5-0.2-2.1-0.6c-0.6-0.4-1.1-0.9-1.4-1.6
			c-0.3-0.7-0.5-1.5-0.5-2.5c0-1.5,0.4-2.6,1.1-3.4c0.7-0.8,1.8-1.2,3.1-1.2c1.3,0,2.3,0.4,3,1.3S320.1,435.6,320.1,437z M313.2,437
			c0,1.1,0.2,2,0.7,2.6c0.5,0.6,1.1,0.9,2,0.9s1.6-0.3,2-0.9c0.5-0.6,0.7-1.5,0.7-2.6c0-1.1-0.2-2-0.7-2.6c-0.5-0.6-1.1-0.9-2-0.9
			c-0.9,0-1.6,0.3-2,0.9S313.2,435.8,313.2,437z"/>
		<path class="st6" d="M328.2,439c0,0.8-0.3,1.5-0.9,1.9c-0.6,0.5-1.5,0.7-2.6,0.7c-1.2,0-2.1-0.2-2.8-0.6v-1.3
			c0.4,0.2,0.9,0.4,1.4,0.5s1,0.2,1.4,0.2c0.7,0,1.3-0.1,1.6-0.3c0.4-0.2,0.6-0.6,0.6-1c0-0.4-0.2-0.6-0.5-0.9s-0.9-0.5-1.8-0.9
			c-0.8-0.3-1.4-0.6-1.8-0.8c-0.4-0.2-0.6-0.5-0.8-0.8c-0.2-0.3-0.3-0.6-0.3-1.1c0-0.7,0.3-1.3,0.9-1.7c0.6-0.4,1.4-0.6,2.5-0.6
			c1,0,1.9,0.2,2.8,0.6l-0.5,1.1c-0.9-0.4-1.7-0.6-2.5-0.6c-0.6,0-1.1,0.1-1.5,0.3c-0.3,0.2-0.5,0.5-0.5,0.8c0,0.2,0.1,0.4,0.2,0.6
			c0.1,0.2,0.3,0.3,0.6,0.5s0.8,0.4,1.6,0.7c1.1,0.4,1.8,0.8,2.2,1.2C328.1,438,328.2,438.5,328.2,439z"/>
		<path class="st6" d="M330.3,430.1c0-0.3,0.1-0.5,0.2-0.7c0.2-0.1,0.3-0.2,0.6-0.2c0.2,0,0.4,0.1,0.6,0.2c0.2,0.1,0.2,0.4,0.2,0.7
			c0,0.3-0.1,0.5-0.2,0.7s-0.3,0.2-0.6,0.2c-0.2,0-0.4-0.1-0.6-0.2C330.4,430.6,330.3,430.4,330.3,430.1z M331.8,441.5h-1.4v-9h1.4
			V441.5z"/>
		<path class="st6" d="M340.9,441.5v-5.8c0-0.7-0.2-1.3-0.5-1.6c-0.3-0.4-0.9-0.5-1.6-0.5c-0.9,0-1.6,0.3-2.1,0.8
			c-0.4,0.5-0.7,1.3-0.7,2.5v4.7h-1.4v-9h1.1l0.2,1.2h0.1c0.3-0.4,0.7-0.8,1.2-1c0.5-0.2,1.1-0.4,1.7-0.4c1.1,0,1.9,0.3,2.4,0.8
			s0.8,1.4,0.8,2.5v5.9H340.9z"/>
		<path class="st6" d="M352.4,432.5v0.9l-1.7,0.2c0.2,0.2,0.3,0.4,0.4,0.8c0.1,0.3,0.2,0.7,0.2,1c0,0.9-0.3,1.6-0.9,2.1
			c-0.6,0.5-1.4,0.8-2.5,0.8c-0.3,0-0.5,0-0.8-0.1c-0.6,0.3-0.9,0.7-0.9,1.2c0,0.2,0.1,0.4,0.3,0.5c0.2,0.1,0.5,0.2,1,0.2h1.6
			c1,0,1.7,0.2,2.2,0.6s0.8,1,0.8,1.8c0,1-0.4,1.8-1.2,2.3c-0.8,0.5-2,0.8-3.5,0.8c-1.2,0-2.1-0.2-2.7-0.7s-1-1.1-1-1.9
			c0-0.5,0.2-1,0.5-1.4s0.8-0.7,1.5-0.8c-0.2-0.1-0.4-0.3-0.6-0.5s-0.2-0.5-0.2-0.8c0-0.3,0.1-0.6,0.3-0.9s0.5-0.5,0.8-0.7
			c-0.5-0.2-0.8-0.5-1.1-1c-0.3-0.5-0.4-1-0.4-1.6c0-1,0.3-1.7,0.9-2.3s1.4-0.8,2.5-0.8c0.5,0,0.9,0.1,1.3,0.2H352.4z M345.2,443
			c0,0.5,0.2,0.9,0.6,1.1c0.4,0.3,1,0.4,1.8,0.4c1.1,0,2-0.2,2.5-0.5s0.8-0.8,0.8-1.4c0-0.5-0.2-0.8-0.5-1s-0.9-0.3-1.7-0.3h-1.6
			c-0.6,0-1.1,0.1-1.4,0.4C345.4,442,345.2,442.5,345.2,443z M346,435.4c0,0.6,0.2,1.1,0.5,1.4c0.4,0.3,0.8,0.5,1.5,0.5
			c1.3,0,2-0.6,2-1.9c0-1.4-0.7-2-2-2c-0.6,0-1.1,0.2-1.5,0.5C346.1,434.2,346,434.7,346,435.4z"/>
	</g>
	<g>
		<path class="st6" d="M124.2,362.2c-1.3,0-2.4,0.4-3.1,1.3c-0.8,0.9-1.1,2.1-1.1,3.6c0,1.6,0.4,2.8,1.1,3.6
			c0.7,0.9,1.8,1.3,3.1,1.3c0.8,0,1.8-0.2,2.9-0.5v1.2c-0.8,0.3-1.9,0.5-3.1,0.5c-1.8,0-3.1-0.5-4.1-1.6c-1-1.1-1.4-2.6-1.4-4.6
			c0-1.2,0.2-2.3,0.7-3.2c0.5-0.9,1.1-1.6,2-2.1c0.9-0.5,1.9-0.8,3.1-0.8c1.3,0,2.4,0.2,3.3,0.7l-0.6,1.2
			C126,362.4,125.1,362.2,124.2,362.2z"/>
		<path class="st6" d="M130.8,373.1h-1.4v-12.8h1.4V373.1z"/>
		<path class="st6" d="M133.6,361.7c0-0.3,0.1-0.5,0.2-0.7c0.2-0.1,0.3-0.2,0.6-0.2c0.2,0,0.4,0.1,0.6,0.2c0.2,0.1,0.2,0.4,0.2,0.7
			s-0.1,0.5-0.2,0.7c-0.2,0.2-0.3,0.2-0.6,0.2c-0.2,0-0.4-0.1-0.6-0.2C133.7,362.2,133.6,362,133.6,361.7z M135.1,373.1h-1.4v-9h1.4
			V373.1z"/>
		<path class="st6" d="M141.8,373.3c-1.3,0-2.4-0.4-3.1-1.2c-0.8-0.8-1.2-1.9-1.2-3.4c0-1.4,0.4-2.6,1.1-3.5
			c0.7-0.9,1.7-1.3,2.9-1.3c1.1,0,2,0.4,2.7,1.1s1,1.7,1,2.9v0.9h-6.2c0,1.1,0.3,1.9,0.8,2.4s1.2,0.8,2.1,0.8c1,0,1.9-0.2,2.9-0.6
			v1.2c-0.5,0.2-0.9,0.4-1.4,0.4C142.9,373.2,142.4,373.3,141.8,373.3z M141.4,365.1c-0.7,0-1.3,0.2-1.7,0.7c-0.4,0.5-0.7,1.1-0.8,2
			h4.7c0-0.9-0.2-1.5-0.6-2C142.7,365.3,142.1,365.1,141.4,365.1z"/>
		<path class="st6" d="M153.5,373.1v-5.8c0-0.7-0.2-1.3-0.5-1.6s-0.9-0.5-1.6-0.5c-0.9,0-1.6,0.3-2.1,0.8s-0.7,1.3-0.7,2.5v4.7h-1.4
			v-9h1.1l0.2,1.2h0.1c0.3-0.4,0.7-0.8,1.2-1c0.5-0.2,1.1-0.4,1.7-0.4c1.1,0,1.9,0.3,2.4,0.8c0.5,0.5,0.8,1.4,0.8,2.5v5.9H153.5z"/>
		<path class="st6" d="M160.6,372.2c0.2,0,0.5,0,0.7-0.1c0.2,0,0.4-0.1,0.5-0.1v1c-0.1,0.1-0.4,0.1-0.7,0.2c-0.3,0-0.5,0.1-0.8,0.1
			c-1.7,0-2.6-0.9-2.6-2.7v-5.3h-1.3v-0.7l1.3-0.6l0.6-1.9h0.8v2.1h2.6v1.1h-2.6v5.3c0,0.5,0.1,1,0.4,1.2
			C159.8,372,160.2,372.2,160.6,372.2z"/>
		<path class="st6" d="M105.1,393.3h-6.7v-12h6.7v1.2h-5.3v3.9h5v1.2h-5v4.4h5.3V393.3z"/>
		<path class="st6" d="M109.7,388.7l-3.1-4.4h1.6l2.4,3.4l2.4-3.4h1.5l-3.1,4.4l3.3,4.6H113l-2.5-3.6l-2.5,3.6h-1.5L109.7,388.7z"/>
		<path class="st6" d="M120.5,393.4c-0.6,0-1.1-0.1-1.6-0.3s-0.9-0.5-1.2-1h-0.1c0.1,0.5,0.1,1,0.1,1.5v3.7h-1.4v-13h1.1l0.2,1.2
			h0.1c0.4-0.5,0.8-0.8,1.2-1.1c0.5-0.2,1-0.3,1.6-0.3c1.2,0,2.1,0.4,2.8,1.2c0.6,0.8,1,2,1,3.4c0,1.5-0.3,2.6-1,3.4
			S121.7,393.4,120.5,393.4z M120.3,385.3c-0.9,0-1.6,0.3-2,0.8s-0.6,1.3-0.6,2.4v0.3c0,1.3,0.2,2.2,0.6,2.7c0.4,0.5,1.1,0.8,2,0.8
			c0.8,0,1.4-0.3,1.8-0.9s0.7-1.5,0.7-2.6c0-1.1-0.2-2-0.7-2.6S121.1,385.3,120.3,385.3z"/>
		<path class="st6" d="M130.4,393.4c-1.3,0-2.4-0.4-3.1-1.2c-0.8-0.8-1.2-1.9-1.2-3.4c0-1.4,0.4-2.6,1.1-3.5s1.7-1.3,2.9-1.3
			c1.1,0,2,0.4,2.7,1.1s1,1.7,1,2.9v0.9h-6.2c0,1.1,0.3,1.9,0.8,2.4c0.5,0.5,1.2,0.8,2.1,0.8c1,0,1.9-0.2,2.9-0.6v1.2
			c-0.5,0.2-0.9,0.4-1.4,0.4C131.5,393.4,131,393.4,130.4,393.4z M130.1,385.3c-0.7,0-1.3,0.2-1.7,0.7c-0.4,0.5-0.7,1.1-0.8,2h4.7
			c0-0.9-0.2-1.5-0.6-2C131.3,385.5,130.8,385.3,130.1,385.3z"/>
		<path class="st6" d="M140.2,384.1c0.4,0,0.8,0,1.1,0.1l-0.2,1.3c-0.4-0.1-0.7-0.1-1-0.1c-0.7,0-1.3,0.3-1.9,0.9
			c-0.5,0.6-0.8,1.3-0.8,2.2v4.8h-1.4v-9h1.1l0.2,1.7h0.1c0.3-0.6,0.7-1,1.2-1.4C139.1,384.3,139.6,384.1,140.2,384.1z"/>
		<path class="st6" d="M142.8,381.8c0-0.3,0.1-0.5,0.2-0.7c0.2-0.1,0.3-0.2,0.6-0.2c0.2,0,0.4,0.1,0.6,0.2c0.2,0.1,0.2,0.4,0.2,0.7
			c0,0.3-0.1,0.5-0.2,0.7c-0.2,0.2-0.3,0.2-0.6,0.2c-0.2,0-0.4-0.1-0.6-0.2C142.9,382.4,142.8,382.2,142.8,381.8z M144.3,393.3h-1.4
			v-9h1.4V393.3z"/>
		<path class="st6" d="M151,393.4c-1.3,0-2.4-0.4-3.1-1.2c-0.8-0.8-1.2-1.9-1.2-3.4c0-1.4,0.4-2.6,1.1-3.5s1.7-1.3,2.9-1.3
			c1.1,0,2,0.4,2.7,1.1s1,1.7,1,2.9v0.9h-6.2c0,1.1,0.3,1.9,0.8,2.4s1.2,0.8,2.1,0.8c1,0,1.9-0.2,2.9-0.6v1.2
			c-0.5,0.2-0.9,0.4-1.4,0.4C152.1,393.4,151.6,393.4,151,393.4z M150.6,385.3c-0.7,0-1.3,0.2-1.7,0.7c-0.4,0.5-0.7,1.1-0.8,2h4.7
			c0-0.9-0.2-1.5-0.6-2C151.8,385.5,151.3,385.3,150.6,385.3z"/>
		<path class="st6" d="M162.7,393.3v-5.8c0-0.7-0.2-1.3-0.5-1.6c-0.3-0.4-0.9-0.5-1.6-0.5c-0.9,0-1.6,0.3-2.1,0.8s-0.7,1.3-0.7,2.5
			v4.7h-1.4v-9h1.1l0.2,1.2h0.1c0.3-0.4,0.7-0.8,1.2-1c0.5-0.2,1.1-0.4,1.7-0.4c1.1,0,1.9,0.3,2.4,0.8s0.8,1.4,0.8,2.5v5.9H162.7z"
			/>
		<path class="st6" d="M170.5,393.4c-1.3,0-2.3-0.4-3-1.2c-0.7-0.8-1.1-1.9-1.1-3.4c0-1.5,0.4-2.7,1.1-3.5s1.8-1.2,3.1-1.2
			c0.4,0,0.9,0,1.3,0.1c0.4,0.1,0.8,0.2,1,0.3l-0.4,1.2c-0.3-0.1-0.6-0.2-1-0.3s-0.7-0.1-0.9-0.1c-1.8,0-2.7,1.2-2.7,3.5
			c0,1.1,0.2,2,0.7,2.5c0.4,0.6,1.1,0.9,2,0.9c0.7,0,1.5-0.2,2.3-0.5v1.2C172.2,393.3,171.4,393.4,170.5,393.4z"/>
		<path class="st6" d="M178.7,393.4c-1.3,0-2.4-0.4-3.1-1.2c-0.8-0.8-1.2-1.9-1.2-3.4c0-1.4,0.4-2.6,1.1-3.5s1.7-1.3,2.9-1.3
			c1.1,0,2,0.4,2.7,1.1s1,1.7,1,2.9v0.9h-6.2c0,1.1,0.3,1.9,0.8,2.4s1.2,0.8,2.1,0.8c1,0,1.9-0.2,2.9-0.6v1.2
			c-0.5,0.2-0.9,0.4-1.4,0.4C179.8,393.4,179.3,393.4,178.7,393.4z M178.3,385.3c-0.7,0-1.3,0.2-1.7,0.7c-0.4,0.5-0.7,1.1-0.8,2h4.7
			c0-0.9-0.2-1.5-0.6-2C179.6,385.5,179,385.3,178.3,385.3z"/>
	</g>
	<g>
		<path class="st6" d="M44.7,193.3v-12h1.4v12H44.7z"/>
		<path class="st6" d="M55.3,193.3v-5.8c0-0.7-0.2-1.3-0.5-1.6c-0.3-0.4-0.9-0.5-1.6-0.5c-0.9,0-1.6,0.3-2.1,0.8s-0.7,1.3-0.7,2.5
			v4.7h-1.4v-9h1.1l0.2,1.2h0.1c0.3-0.4,0.7-0.8,1.2-1c0.5-0.2,1.1-0.4,1.7-0.4c1.1,0,1.9,0.3,2.4,0.8c0.5,0.5,0.8,1.4,0.8,2.5v5.9
			H55.3z"/>
		<path class="st6" d="M65.6,193.3v-5.8c0-0.7-0.2-1.3-0.5-1.6c-0.3-0.4-0.9-0.5-1.6-0.5c-0.9,0-1.6,0.3-2.1,0.8s-0.7,1.3-0.7,2.5
			v4.7h-1.4v-9h1.1l0.2,1.2h0.1c0.3-0.4,0.7-0.8,1.2-1c0.5-0.2,1.1-0.4,1.7-0.4c1.1,0,1.9,0.3,2.4,0.8c0.5,0.5,0.8,1.4,0.8,2.5v5.9
			H65.6z"/>
		<path class="st6" d="M77.5,188.8c0,1.5-0.4,2.6-1.1,3.4c-0.7,0.8-1.8,1.2-3.1,1.2c-0.8,0-1.5-0.2-2.1-0.6
			c-0.6-0.4-1.1-0.9-1.4-1.6c-0.3-0.7-0.5-1.5-0.5-2.5c0-1.5,0.4-2.6,1.1-3.4c0.7-0.8,1.8-1.2,3.1-1.2c1.3,0,2.3,0.4,3,1.3
			S77.5,187.4,77.5,188.8z M70.7,188.8c0,1.1,0.2,2,0.7,2.6c0.5,0.6,1.1,0.9,2,0.9s1.6-0.3,2-0.9c0.5-0.6,0.7-1.5,0.7-2.6
			c0-1.1-0.2-2-0.7-2.6c-0.5-0.6-1.1-0.9-2-0.9c-0.9,0-1.6,0.3-2,0.9C70.9,186.8,70.7,187.7,70.7,188.8z"/>
		<path class="st6" d="M81.9,193.3l-3.4-9h1.5l1.9,5.3c0.4,1.2,0.7,2.1,0.8,2.4h0.1c0.1-0.3,0.2-0.9,0.6-1.8s1-2.9,2.2-6h1.5l-3.4,9
			H81.9z"/>
		<path class="st6" d="M93.9,193.3l-0.3-1.3h-0.1c-0.4,0.6-0.9,0.9-1.3,1.1c-0.4,0.2-1,0.3-1.7,0.3c-0.9,0-1.6-0.2-2.1-0.7
			s-0.8-1.1-0.8-2c0-1.8,1.5-2.8,4.4-2.9l1.5,0v-0.6c0-0.7-0.2-1.2-0.5-1.6s-0.8-0.5-1.5-0.5c-0.7,0-1.6,0.2-2.5,0.7l-0.4-1
			c0.4-0.2,0.9-0.4,1.5-0.6c0.5-0.1,1.1-0.2,1.6-0.2c1.1,0,1.9,0.2,2.4,0.7c0.5,0.5,0.8,1.2,0.8,2.3v6.1H93.9z M90.8,192.4
			c0.8,0,1.5-0.2,2-0.7c0.5-0.5,0.7-1.1,0.7-2v-0.8l-1.4,0.1c-1.1,0-1.9,0.2-2.3,0.5c-0.5,0.3-0.7,0.8-0.7,1.4
			c0,0.5,0.1,0.9,0.4,1.1C89.8,192.2,90.2,192.4,90.8,192.4z"/>
		<path class="st6" d="M100.6,192.4c0.2,0,0.5,0,0.7-0.1c0.2,0,0.4-0.1,0.5-0.1v1c-0.1,0.1-0.4,0.1-0.7,0.2s-0.5,0.1-0.8,0.1
			c-1.7,0-2.6-0.9-2.6-2.7v-5.3h-1.3v-0.7l1.3-0.6l0.6-1.9h0.8v2.1h2.6v1.1h-2.6v5.3c0,0.5,0.1,1,0.4,1.2
			C99.8,192.2,100.1,192.4,100.6,192.4z"/>
		<path class="st6" d="M103.5,181.9c0-0.3,0.1-0.5,0.2-0.7c0.2-0.1,0.3-0.2,0.6-0.2c0.2,0,0.4,0.1,0.6,0.2c0.2,0.1,0.2,0.4,0.2,0.7
			c0,0.3-0.1,0.5-0.2,0.7c-0.2,0.2-0.3,0.2-0.6,0.2c-0.2,0-0.4-0.1-0.6-0.2C103.6,182.4,103.5,182.2,103.5,181.9z M105,193.3h-1.4
			v-9h1.4V193.3z"/>
		<path class="st6" d="M115.6,188.8c0,1.5-0.4,2.6-1.1,3.4c-0.7,0.8-1.8,1.2-3.1,1.2c-0.8,0-1.5-0.2-2.1-0.6
			c-0.6-0.4-1.1-0.9-1.4-1.6s-0.5-1.5-0.5-2.5c0-1.5,0.4-2.6,1.1-3.4c0.7-0.8,1.8-1.2,3.1-1.2c1.3,0,2.3,0.4,3,1.3
			C115.2,186.3,115.6,187.4,115.6,188.8z M108.8,188.8c0,1.1,0.2,2,0.7,2.6c0.5,0.6,1.1,0.9,2,0.9s1.6-0.3,2-0.9
			c0.5-0.6,0.7-1.5,0.7-2.6c0-1.1-0.2-2-0.7-2.6c-0.5-0.6-1.1-0.9-2-0.9c-0.9,0-1.6,0.3-2,0.9C109,186.8,108.8,187.7,108.8,188.8z"
			/>
		<path class="st6" d="M124.2,193.3v-5.8c0-0.7-0.2-1.3-0.5-1.6c-0.3-0.4-0.9-0.5-1.6-0.5c-0.9,0-1.6,0.3-2.1,0.8s-0.7,1.3-0.7,2.5
			v4.7H118v-9h1.1l0.2,1.2h0.1c0.3-0.4,0.7-0.8,1.2-1c0.5-0.2,1.1-0.4,1.7-0.4c1.1,0,1.9,0.3,2.4,0.8c0.5,0.5,0.8,1.4,0.8,2.5v5.9
			H124.2z"/>
	</g>
	<g>
		<path class="st6" d="M352.3,111.1l-4.1-10.6h-0.1c0.1,0.8,0.1,1.8,0.1,3v7.6H347v-12h2.1l3.8,9.9h0.1l3.8-9.9h2.1v12h-1.4v-7.7
			c0-0.9,0-1.8,0.1-2.9h-0.1l-4.1,10.6H352.3z"/>
		<path class="st6" d="M365.8,111.2c-1.3,0-2.4-0.4-3.1-1.2c-0.8-0.8-1.2-1.9-1.2-3.4c0-1.4,0.4-2.6,1.1-3.5
			c0.7-0.9,1.7-1.3,2.9-1.3c1.1,0,2,0.4,2.7,1.1s1,1.7,1,2.9v0.9h-6.2c0,1.1,0.3,1.9,0.8,2.4s1.2,0.8,2.1,0.8c1,0,1.9-0.2,2.9-0.6
			v1.2c-0.5,0.2-0.9,0.4-1.4,0.4C366.9,111.2,366.4,111.2,365.8,111.2z M365.4,103.1c-0.7,0-1.3,0.2-1.7,0.7s-0.7,1.1-0.8,2h4.7
			c0-0.9-0.2-1.5-0.6-2S366.1,103.1,365.4,103.1z"/>
		<path class="st6" d="M377.2,108.6c0,0.8-0.3,1.5-0.9,1.9c-0.6,0.5-1.5,0.7-2.6,0.7c-1.2,0-2.1-0.2-2.8-0.6v-1.3
			c0.4,0.2,0.9,0.4,1.4,0.5s1,0.2,1.4,0.2c0.7,0,1.3-0.1,1.6-0.3s0.6-0.6,0.6-1c0-0.4-0.2-0.6-0.5-0.9s-0.9-0.5-1.8-0.9
			c-0.8-0.3-1.4-0.6-1.8-0.8c-0.4-0.2-0.6-0.5-0.8-0.8c-0.2-0.3-0.3-0.6-0.3-1.1c0-0.7,0.3-1.3,0.9-1.7c0.6-0.4,1.4-0.6,2.5-0.6
			c1,0,1.9,0.2,2.8,0.6l-0.5,1.1c-0.9-0.4-1.7-0.6-2.5-0.6c-0.6,0-1.1,0.1-1.5,0.3c-0.3,0.2-0.5,0.5-0.5,0.8c0,0.2,0.1,0.4,0.2,0.6
			c0.1,0.2,0.3,0.3,0.6,0.5c0.3,0.2,0.8,0.4,1.6,0.7c1.1,0.4,1.8,0.8,2.2,1.2C377,107.5,377.2,108,377.2,108.6z"/>
		<path class="st6" d="M385.2,108.6c0,0.8-0.3,1.5-0.9,1.9c-0.6,0.5-1.5,0.7-2.6,0.7c-1.2,0-2.1-0.2-2.8-0.6v-1.3
			c0.4,0.2,0.9,0.4,1.4,0.5s1,0.2,1.4,0.2c0.7,0,1.3-0.1,1.6-0.3s0.6-0.6,0.6-1c0-0.4-0.2-0.6-0.5-0.9s-0.9-0.5-1.8-0.9
			c-0.8-0.3-1.4-0.6-1.8-0.8s-0.6-0.5-0.8-0.8c-0.2-0.3-0.3-0.6-0.3-1.1c0-0.7,0.3-1.3,0.9-1.7c0.6-0.4,1.4-0.6,2.5-0.6
			c1,0,1.9,0.2,2.8,0.6l-0.5,1.1c-0.9-0.4-1.7-0.6-2.5-0.6c-0.6,0-1.1,0.1-1.5,0.3c-0.3,0.2-0.5,0.5-0.5,0.8c0,0.2,0.1,0.4,0.2,0.6
			c0.1,0.2,0.3,0.3,0.6,0.5c0.3,0.2,0.8,0.4,1.6,0.7c1.1,0.4,1.8,0.8,2.2,1.2C385.1,107.5,385.2,108,385.2,108.6z"/>
		<path class="st6" d="M393,111.1l-0.3-1.3h-0.1c-0.4,0.6-0.9,0.9-1.3,1.1c-0.4,0.2-1,0.3-1.7,0.3c-0.9,0-1.6-0.2-2.1-0.7
			s-0.8-1.1-0.8-2c0-1.8,1.5-2.8,4.4-2.9l1.5,0v-0.6c0-0.7-0.2-1.2-0.5-1.6c-0.3-0.3-0.8-0.5-1.5-0.5c-0.7,0-1.6,0.2-2.5,0.7l-0.4-1
			c0.4-0.2,0.9-0.4,1.5-0.6c0.5-0.1,1.1-0.2,1.6-0.2c1.1,0,1.9,0.2,2.4,0.7c0.5,0.5,0.8,1.2,0.8,2.3v6.1H393z M389.9,110.1
			c0.8,0,1.5-0.2,2-0.7c0.5-0.5,0.7-1.1,0.7-2v-0.8l-1.4,0.1c-1.1,0-1.9,0.2-2.3,0.5c-0.5,0.3-0.7,0.8-0.7,1.4
			c0,0.5,0.1,0.9,0.4,1.1C389,110,389.4,110.1,389.9,110.1z"/>
		<path class="st6" d="M404.2,102.1v0.9l-1.7,0.2c0.2,0.2,0.3,0.4,0.4,0.8c0.1,0.3,0.2,0.7,0.2,1c0,0.9-0.3,1.6-0.9,2.1
			c-0.6,0.5-1.4,0.8-2.5,0.8c-0.3,0-0.5,0-0.8-0.1c-0.6,0.3-0.9,0.7-0.9,1.2c0,0.2,0.1,0.4,0.3,0.5c0.2,0.1,0.5,0.2,1,0.2h1.6
			c1,0,1.7,0.2,2.2,0.6s0.8,1,0.8,1.8c0,1-0.4,1.8-1.2,2.3c-0.8,0.5-2,0.8-3.5,0.8c-1.2,0-2.1-0.2-2.7-0.7c-0.6-0.4-1-1.1-1-1.9
			c0-0.5,0.2-1,0.5-1.4c0.3-0.4,0.8-0.7,1.5-0.8c-0.2-0.1-0.4-0.3-0.6-0.5c-0.2-0.2-0.2-0.5-0.2-0.8c0-0.3,0.1-0.6,0.3-0.9
			s0.5-0.5,0.8-0.7c-0.5-0.2-0.8-0.5-1.1-1c-0.3-0.5-0.4-1-0.4-1.6c0-1,0.3-1.7,0.9-2.3c0.6-0.5,1.4-0.8,2.5-0.8
			c0.5,0,0.9,0.1,1.3,0.2H404.2z M397,112.6c0,0.5,0.2,0.9,0.6,1.1c0.4,0.3,1,0.4,1.8,0.4c1.1,0,2-0.2,2.5-0.5s0.8-0.8,0.8-1.4
			c0-0.5-0.2-0.8-0.5-1c-0.3-0.2-0.9-0.3-1.7-0.3h-1.6c-0.6,0-1.1,0.1-1.4,0.4S397,112,397,112.6z M397.7,105c0,0.6,0.2,1.1,0.5,1.4
			c0.4,0.3,0.9,0.5,1.5,0.5c1.3,0,2-0.6,2-1.9c0-1.4-0.7-2-2-2c-0.6,0-1.1,0.2-1.5,0.5S397.7,104.3,397.7,105z"/>
		<path class="st6" d="M405.9,99.6c0-0.3,0.1-0.5,0.2-0.7c0.2-0.1,0.3-0.2,0.6-0.2c0.2,0,0.4,0.1,0.6,0.2c0.2,0.1,0.2,0.4,0.2,0.7
			c0,0.3-0.1,0.5-0.2,0.7c-0.2,0.2-0.3,0.2-0.6,0.2c-0.2,0-0.4-0.1-0.6-0.2C406,100.2,405.9,100,405.9,99.6z M407.4,111.1H406v-9
			h1.4V111.1z"/>
		<path class="st6" d="M416.4,111.1v-5.8c0-0.7-0.2-1.3-0.5-1.6c-0.3-0.4-0.9-0.5-1.6-0.5c-0.9,0-1.6,0.3-2.1,0.8s-0.7,1.3-0.7,2.5
			v4.7h-1.4v-9h1.1l0.2,1.2h0.1c0.3-0.4,0.7-0.8,1.2-1c0.5-0.2,1.1-0.4,1.7-0.4c1.1,0,1.9,0.3,2.4,0.8c0.5,0.5,0.8,1.4,0.8,2.5v5.9
			H416.4z"/>
		<path class="st6" d="M427.9,102.1v0.9l-1.7,0.2c0.2,0.2,0.3,0.4,0.4,0.8c0.1,0.3,0.2,0.7,0.2,1c0,0.9-0.3,1.6-0.9,2.1
			c-0.6,0.5-1.4,0.8-2.5,0.8c-0.3,0-0.5,0-0.8-0.1c-0.6,0.3-0.9,0.7-0.9,1.2c0,0.2,0.1,0.4,0.3,0.5c0.2,0.1,0.5,0.2,1,0.2h1.6
			c1,0,1.7,0.2,2.2,0.6s0.8,1,0.8,1.8c0,1-0.4,1.8-1.2,2.3c-0.8,0.5-2,0.8-3.5,0.8c-1.2,0-2.1-0.2-2.7-0.7c-0.6-0.4-1-1.1-1-1.9
			c0-0.5,0.2-1,0.5-1.4c0.3-0.4,0.8-0.7,1.5-0.8c-0.2-0.1-0.4-0.3-0.6-0.5c-0.2-0.2-0.2-0.5-0.2-0.8c0-0.3,0.1-0.6,0.3-0.9
			s0.5-0.5,0.8-0.7c-0.5-0.2-0.8-0.5-1.1-1c-0.3-0.5-0.4-1-0.4-1.6c0-1,0.3-1.7,0.9-2.3c0.6-0.5,1.4-0.8,2.5-0.8
			c0.5,0,0.9,0.1,1.3,0.2H427.9z M420.8,112.6c0,0.5,0.2,0.9,0.6,1.1c0.4,0.3,1,0.4,1.8,0.4c1.1,0,2-0.2,2.5-0.5s0.8-0.8,0.8-1.4
			c0-0.5-0.2-0.8-0.5-1c-0.3-0.2-0.9-0.3-1.7-0.3h-1.6c-0.6,0-1.1,0.1-1.4,0.4S420.8,112,420.8,112.6z M421.5,105
			c0,0.6,0.2,1.1,0.5,1.4c0.4,0.3,0.9,0.5,1.5,0.5c1.3,0,2-0.6,2-1.9c0-1.4-0.7-2-2-2c-0.6,0-1.1,0.2-1.5,0.5S421.5,104.3,421.5,105
			z"/>
	</g>
	<path class="st7" d="M386.9,127.5c-13.3,0-24.1,8.2-24.1,18.4c0,4.1,1.8,7.9,4.8,11l-1.8,8.7l8-4.2c3.8,1.8,8.2,2.9,13,2.9
		c13.3,0,24.1-8.2,24.1-18.4C410.9,135.7,400.1,127.5,386.9,127.5z M396.1,155.1h-18.4v-2.7h18.4V155.1z M396.1,147.9h-18.4v-2.7
		h18.4V147.9z M396.1,140.7h-18.4v-2.7h18.4V140.7z"/>
	<g class="st8">
		<path class="st6" d="M205.5,95.3c-12,0-21.8,9.8-21.8,21.8h3.7c0-9.9,8.1-18,18-18s18,8.1,18,18s-8.1,18-18,18v3.7
			c12,0,21.8-9.8,21.8-21.8S217.5,95.3,205.5,95.3z"/>
		<path class="st6" d="M212.9,117.1c0-4.1-3.3-7.4-7.4-7.4s-7.4,3.3-7.4,7.4h7.4v7.4C209.6,124.5,212.9,121.2,212.9,117.1z"/>
		<polygon class="st6" points="199.6,120.9 199.1,120.9 187.8,120.9 184,120.9 183.9,120.9 183.9,123.6 184.7,123.6 188.7,123.6 
			197.7,123.6 192.1,129.2 189.4,131.8 181.1,140.2 183,142.1 191.4,133.7 194.1,131.1 199.6,125.5 199.6,134.1 199.6,138.1 
			199.6,139.3 202.3,139.3 202.3,138.6 202.3,134.9 202.3,123.8 202.3,123.6 202.3,122.8 202.3,120.9 200.4,120.9 		"/>
	</g>
	<g class="st8">
		<path class="st6" d="M312.8,473.7c0,0.5,0.2,0.9,0.5,1.2c0.3,0.3,0.9,0.7,1.7,1v-4C313.5,472.1,312.8,472.7,312.8,473.7z"/>
		<path class="st6" d="M317.3,481.7v4.2c1.5-0.3,2.3-0.9,2.3-2c0-0.5-0.2-0.9-0.6-1.2C318.6,482.4,318,482.1,317.3,481.7z"/>
		<path class="st6" d="M316.1,456.1c-12.3,0-22.2,9.9-22.2,22.2c0,12.3,9.9,22.2,22.2,22.2c12.3,0,22.2-9.9,22.2-22.2
			C338.3,466,328.3,456.1,316.1,456.1z M322.7,488c-1.3,1.1-3.1,1.7-5.4,2v3.5H315V490c-2.8-0.1-5.2-0.5-7.2-1.5v-4.5
			c1,0.5,2.2,0.9,3.5,1.3c1.4,0.4,2.6,0.6,3.7,0.7v-5.2l-1.1-0.4c-2.2-0.9-3.8-1.8-4.7-2.9c-0.9-1-1.4-2.3-1.4-3.8
			c0-1.6,0.6-3,1.9-4c1.3-1.1,3.1-1.7,5.4-1.9v-2.6h2.3v2.5c2.6,0.1,4.9,0.6,7,1.6l-1.6,4c-1.8-0.7-3.6-1.2-5.4-1.3v5
			c2.2,0.8,3.8,1.6,4.7,2.2c0.9,0.6,1.6,1.3,2,2c0.4,0.7,0.7,1.6,0.7,2.6C324.7,485.5,324,486.9,322.7,488z"/>
	</g>
	<g class="st8">
		<polygon class="st6" points="154.6,414.1 143.7,424.9 146.4,427.5 157.2,416.7 160.5,420 160.5,410.8 151.3,410.8 		"/>
		<polygon class="st6" points="128.4,410.8 119.1,410.8 119.1,420 122.4,416.7 133.3,427.5 135.9,424.9 125.1,414.1 		"/>
		<polygon class="st6" points="133.3,436 122.4,446.9 119.1,443.6 119.1,452.8 128.4,452.8 125.1,449.5 135.9,438.7 		"/>
		<polygon class="st6" points="146.4,436 143.7,438.7 154.6,449.5 151.3,452.8 160.5,452.8 160.5,443.6 157.2,446.9 		"/>
	</g>
	<path class="st7" d="M434.5,370.8c3.8,0,7-2.8,7.7-6.4h12.4c0.7,3.6,3.8,6.4,7.7,6.4c4.3,0,7.8-3.5,7.8-7.8c0-4.3-3.5-7.8-7.8-7.8
		c-0.9,0-1.7,0.1-2.5,0.4l-6.3-10.9c1.7-1.4,2.7-3.6,2.7-5.9c0-4.3-3.5-7.8-7.8-7.8c-4.3,0-7.8,3.5-7.8,7.8c0,2.4,1.1,4.5,2.7,5.9
		l-6.3,10.9c-0.8-0.3-1.7-0.5-2.6-0.5c-4.3,0-7.8,3.5-7.8,7.8C426.7,367.3,430.2,370.8,434.5,370.8z M458.5,361.6
		c0.2-0.5,0.4-0.9,0.8-1.3c0.6-0.7,1.5-1.2,2.5-1.3c0.2,0,0.3-0.1,0.5-0.1c2.2,0,4.1,1.8,4.1,4.1s-1.8,4.1-4.1,4.1
		c-1.7,0-3.2-1.1-3.8-2.7c-0.2-0.4-0.3-0.9-0.3-1.4S458.3,362,458.5,361.6z M448.5,334.7c2.2,0,4.1,1.8,4.1,4.1c0,1-0.4,1.9-1,2.6
		c-0.6,0.7-1.4,1.2-2.4,1.4c-0.2,0-0.5,0.1-0.7,0.1s-0.5,0-0.7-0.1c-1-0.2-1.8-0.7-2.4-1.4c-0.6-0.7-1-1.6-1-2.6
		C444.4,336.5,446.2,334.7,448.5,334.7z M445.9,346.1c0.8,0.3,1.7,0.5,2.6,0.5c0.9,0,1.8-0.2,2.6-0.5l6.3,10.8
		c-1.4,1.1-2.4,2.8-2.7,4.6h-12.4c-0.3-1.8-1.3-3.4-2.6-4.5L445.9,346.1z M434.5,358.9c0.2,0,0.5,0,0.7,0.1c1,0.2,1.8,0.7,2.4,1.4
		c0.3,0.3,0.5,0.7,0.7,1.2c0.2,0.4,0.3,0.9,0.3,1.4s-0.1,1-0.3,1.4c-0.6,1.5-2,2.7-3.8,2.7c-2.2,0-4.1-1.8-4.1-4.1
		S432.3,358.9,434.5,358.9z"/>
	<g class="st8">
		<path class="st6" d="M84.9,222.3c-7.1,0-12.9,5.8-12.9,12.9c0,0,0,3.3,1.3,5.7c0,0,4.4,6.9,4.4,11.6h7.3h7.3
			c0-4.6,4.4-11.6,4.4-11.6c1.3-2.3,1.3-5.7,1.3-5.7C97.9,228.1,92.1,222.3,84.9,222.3z"/>
		<rect x="76.9" y="255.8" class="st6" width="16.1" height="2.4"/>
		<rect x="76.9" y="260.2" class="st6" width="16.1" height="2.4"/>
		<rect x="83.5" y="209.6" class="st6" width="2.8" height="6.1"/>
		<rect x="106.3" y="235.7" class="st6" width="6.1" height="2.8"/>
		<rect x="57.5" y="235.7" class="st6" width="6.1" height="2.8"/>
		
			<rect x="99.1" y="218.4" transform="matrix(0.707 -0.7072 0.7072 0.707 -125.5214 136.6586)" class="st6" width="6.1" height="2.8"/>
		
			<rect x="64.7" y="252.9" transform="matrix(0.7071 -0.7071 0.7071 0.7071 -159.9849 122.3532)" class="st6" width="6.1" height="2.8"/>
		
			<rect x="100.8" y="251.3" transform="matrix(0.7071 -0.7071 0.7071 0.7071 -149.8937 146.7428)" class="st6" width="2.8" height="6.1"/>
		
			<rect x="66.3" y="216.8" transform="matrix(0.7071 -0.7071 0.7071 0.7071 -135.603 112.2455)" class="st6" width="2.8" height="6.1"/>
	</g>
</g>
</svg>
