<?xml version="1.0" encoding="utf-8"?>
<!-- Generator: Adobe Illustrator 20.1.0, SVG Export Plug-In . SVG Version: 6.00 Build 0)  -->
<svg version="1.1" id="Layer_1" xmlns="http://www.w3.org/2000/svg" xmlns:xlink="http://www.w3.org/1999/xlink" x="0px" y="0px"
	 viewBox="0 0 74.1 46.4" style="enable-background:new 0 0 74.1 46.4;" xml:space="preserve">
<style type="text/css">
	.st0{fill:#C4D600;}
	.st1{fill:#0076A9;}
</style>
<g>
	<path class="st0" d="M2,36.5L1.6,37c-2.2,2.2-2.2,5.6,0,7.8c1.1,1.1,2.5,1.6,3.9,1.6c1.4,0,2.8-0.5,3.9-1.6l0.4-0.4L2,36.5z"/>
	<path class="st1" d="M52.8,13.2L40.4,25.5l-7.9-8.3c-1.4-1.5-3.4-2.4-5.5-2.4c0,0-0.1,0-0.1,0c-2,0-4,0.8-5.4,2.3L3.1,35.5l7.8,7.8
		l16-16l8.5,8.9c2.7,2.7,7.2,2.7,9.9,0L60.6,21"/>
	<path class="st0" d="M60.6,21l5.3,5.3c0.5,0.5,1.3,0.3,1.5-0.4l3.3-12.4L74,1.1c0.2-0.7-0.4-1.3-1.1-1.1L60.5,3.4L48.1,6.7
		c-0.7,0.2-0.9,1-0.4,1.5l5.1,5.1"/>
</g>
</svg>
