<?xml version="1.0" encoding="utf-8"?>
<!-- Generator: Adobe Illustrator 20.1.0, SVG Export Plug-In . SVG Version: 6.00 Build 0)  -->
<svg version="1.1" id="Layer_1" xmlns="http://www.w3.org/2000/svg" xmlns:xlink="http://www.w3.org/1999/xlink" x="0px" y="0px"
	 viewBox="0 0 70.3 70.3" style="enable-background:new 0 0 70.3 70.3;" xml:space="preserve">
<style type="text/css">
	.st0{fill:#C4D600;}
	.st1{fill:#FFFFFF;}
	.st2{fill:#0076A9;}
</style>
<path class="st0" d="M32.2,38.2c-7.8-7.8-7.8-20.6,0-28.4c7.8-7.8,20.6-7.8,28.4,0s7.8,20.6,0,28.4C52.7,46,40,46,32.2,38.2z"/>
<g>
	<ellipse transform="matrix(0.7071 -0.7071 0.7071 0.7071 -2.5959 47.696)" class="st1" cx="56.3" cy="27" rx="4.7" ry="4.7"/>
	<g>
		<path class="st0" d="M2.4,59.6l-2,2c-0.6,0.6-0.6,1.5,0,2.1l6.2,6.2c0.6,0.6,1.5,0.6,2.1,0l2-2L2.4,59.6z"/>
		<path class="st2" d="M63.3,7C54-2.3,38.8-2.3,29.4,7c-7.9,7.9-9.1,20-3.6,29.2L3.2,58.8l8.3,8.3l22.6-22.6
			c9.2,5.5,21.3,4.3,29.2-3.6C72.7,31.6,72.7,16.3,63.3,7z M32.2,38.2c-7.8-7.8-7.8-20.6,0-28.4c7.8-7.8,20.6-7.8,28.4,0
			s7.8,20.6,0,28.4C52.7,46,40,46,32.2,38.2z"/>
	</g>
</g>
</svg>
