<?xml version="1.0" encoding="utf-8"?>
<!-- Generator: Adobe Illustrator 20.1.0, SVG Export Plug-In . SVG Version: 6.00 Build 0)  -->
<svg version="1.1" id="Layer_1" xmlns="http://www.w3.org/2000/svg" xmlns:xlink="http://www.w3.org/1999/xlink" x="0px" y="0px"
	 viewBox="0 0 67.3 68.7" style="enable-background:new 0 0 67.3 68.7;" xml:space="preserve">
<style type="text/css">
	.st0{fill:#C4D600;}
	.st1{fill:#0076A9;}
</style>
<g>
	<rect x="41.7" y="14.4" class="st0" width="9.5" height="54"/>
	<path class="st1" d="M33.7,15.8h17.9c0,0,9.1,0.5,10.1,7l5.6-3c0,0-2-16.4-24-16.4c-7.8,0-10.1,0-10.1,0L32.5,0l-7.6,0v20.5
		l7.6-0.1L33.7,15.8z"/>
	
		<rect x="-32.3" y="32.3" transform="matrix(4.502424e-11 1 -1 4.502424e-11 36.3897 32.2907)" class="st0" width="68.7" height="4.1"/>
	<path class="st1" d="M5.2,0v68.7h13.2V0H5.2z M17,61.3h-3.3v-2.1H17V61.3z M17,52.2h-6.1v-1.6H17V52.2z M17,44.1h-3.3V42H17V44.1z
		 M17,35.1h-6.1v-1.6H17V35.1z M17,26.4h-3.3v-2.1H17V26.4z M17,17.1h-6.1v-1.6H17V17.1z M17,8.7h-3.3V6.6H17V8.7z"/>
</g>
</svg>
