<?xml version="1.0" encoding="utf-8"?>
<!-- Generator: Adobe Illustrator 20.1.0, SVG Export Plug-In . SVG Version: 6.00 Build 0)  -->
<svg version="1.1" id="Layer_1" xmlns="http://www.w3.org/2000/svg" xmlns:xlink="http://www.w3.org/1999/xlink" x="0px" y="0px"
	 viewBox="0 0 58.8 77.5" style="enable-background:new 0 0 58.8 77.5;" xml:space="preserve">
<style type="text/css">
	.st0{fill:#0076A9;}
	.st1{fill:#C4D600;}
</style>
<g>
	<path class="st0" d="M42.4,37.9c2.4-2.4,4.1-5.7,5.3-9.8c6.2-0.2,11.1-5.2,11.1-11.4c0-5.6-4.1-10.3-9.4-11.2V1c0-0.6-0.5-1-1-1
		h-38c-0.6,0-1,0.5-1,1V6C4,7,0,11.6,0,17.2c0,6.2,4.9,11.2,11.1,11.4c1.2,3.7,2.9,6.7,5.2,9.1c1.9,2,4.2,3.4,6.8,4.2v13.5
		c-0.3,6.3-5,10.8-11.1,10.8h0c-0.6,0-1,0.5-1,1v1.2h37.4v-1.2c0-0.6-0.5-1-1-1c-6.3,0-11.7-4.9-12-10.8V42
		C38.1,41.2,40.4,39.9,42.4,37.9z M54.3,16.7c0,3.4-2.4,6.2-5.7,6.8c0.5-3.4,0.8-7.2,0.7-11.5l0,0v-1.9
		C52.2,10.9,54.3,13.6,54.3,16.7z M4.5,17.2c0-3.1,2-5.6,4.7-6.6v1.2c0,0.4,0,1.6,0,1.9l0,0.3c0,3.6,0.2,6.8,0.7,9.8
		C6.8,23.2,4.5,20.5,4.5,17.2z"/>
	<path class="st1" d="M11,76.4c0,0.6,0.5,1,1,1h35.3c0.6,0,1-0.5,1-1V72H11V76.4z"/>
</g>
</svg>
