<?xml version="1.0" encoding="utf-8"?>
<!-- Generator: Adobe Illustrator 20.1.0, SVG Export Plug-In . SVG Version: 6.00 Build 0)  -->
<svg version="1.1" id="Layer_1" xmlns="http://www.w3.org/2000/svg" xmlns:xlink="http://www.w3.org/1999/xlink" x="0px" y="0px"
	 viewBox="0 0 71.1 71.8" style="enable-background:new 0 0 71.1 71.8;" xml:space="preserve">
<style type="text/css">
	.st0{fill:#0076A9;}
	.st1{fill:#C4D600;}
</style>
<path class="st0" d="M48.8,45.8l5.2-2.2c-0.1-2.4-0.5-4.6-1.2-6.8L47,36.1c-0.3-0.7-0.6-1.3-1-1.9l3.2-4.7c-1.4-2-3-3.7-4.8-5.3
	l-5.3,2.5c-0.5-0.3-1-0.6-1.5-0.9l0.1-5.7c-2.2-1-4.5-1.6-7-2l-3,5c-0.3,0-0.5,0-0.8,0s-0.5,0-0.8,0l-3-5c-2.4,0.3-4.8,1-7,2
	l0.1,5.7c-0.5,0.3-1,0.6-1.5,0.9l-5.3-2.5c-1.8,1.5-3.4,3.3-4.8,5.3l3.2,4.7c-0.3,0.6-0.7,1.3-1,1.9l-5.8,0.7
	c-0.7,2.2-1.1,4.4-1.2,6.8l5.2,2.2c0,0.9,0.1,1.8,0.3,2.6L1,52.2c0.6,2.2,1.5,4.2,2.6,6.1l5.6-0.9c0.6,0.9,1.3,1.7,2,2.4l-1.7,5.5
	c1.6,1.4,3.4,2.6,5.4,3.6l4.2-3.8c1.1,0.4,2.2,0.8,3.3,1l1.5,5.5c1,0.1,2.1,0.2,3.2,0.2s2.1-0.1,3.2-0.2l1.5-5.5
	c1.1-0.2,2.2-0.6,3.3-1l4.2,3.8c1.9-1,3.7-2.2,5.4-3.6l-1.7-5.5c0.7-0.8,1.4-1.6,2-2.4l5.6,0.9c1.1-1.9,2-4,2.6-6.1l-4.5-3.7
	C48.6,47.6,48.7,46.7,48.8,45.8z M27,58.1c-7.3,0-13.3-5.9-13.3-13.3c0-7.3,5.9-13.3,13.3-13.3c7.3,0,13.3,5.9,13.3,13.3
	C40.3,52.1,34.3,58.1,27,58.1z"/>
<path class="st1" d="M68.5,14.2l2.7-1.1c-0.1-1.2-0.3-2.4-0.6-3.5l-3-0.4c-0.1-0.3-0.3-0.7-0.5-1l1.6-2.4c-0.7-1-1.5-1.9-2.5-2.7
	l-2.7,1.3C63.3,4.3,63,4.1,62.8,4L62.8,1c-1.1-0.5-2.3-0.8-3.6-1l-1.6,2.5c-0.1,0-0.3,0-0.4,0s-0.3,0-0.4,0L55.4,0
	c-1.3,0.2-2.4,0.5-3.6,1L51.8,4c-0.3,0.1-0.5,0.3-0.8,0.5l-2.7-1.3c-0.9,0.8-1.8,1.7-2.5,2.7l1.6,2.4c-0.2,0.3-0.3,0.6-0.5,1l-3,0.4
	c-0.3,1.1-0.5,2.3-0.6,3.5l2.7,1.1c0,0.5,0.1,0.9,0.1,1.4L44,17.5c0.3,1.1,0.8,2.2,1.3,3.1l2.9-0.5c0.3,0.4,0.7,0.9,1,1.2l-0.9,2.8
	c0.8,0.7,1.8,1.3,2.7,1.8l2.2-1.9c0.5,0.2,1.1,0.4,1.7,0.5l0.8,2.8c0.5,0.1,1.1,0.1,1.6,0.1s1.1,0,1.6-0.1l0.8-2.8
	c0.6-0.1,1.1-0.3,1.7-0.5l2.2,1.9c1-0.5,1.9-1.1,2.7-1.8l-0.9-2.8c0.4-0.4,0.7-0.8,1-1.2l2.9,0.5c0.6-1,1-2,1.3-3.1l-2.3-1.9
	C68.4,15.1,68.4,14.7,68.5,14.2z M57.3,20.5c-3.8,0-6.8-3-6.8-6.8c0-3.8,3-6.8,6.8-6.8c3.8,0,6.8,3,6.8,6.8
	C64.1,17.4,61.1,20.5,57.3,20.5z"/>
</svg>
