<?xml version="1.0" encoding="utf-8"?>
<!-- Generator: Adobe Illustrator 20.1.0, SVG Export Plug-In . SVG Version: 6.00 Build 0)  -->
<svg version="1.1" id="Layer_1" xmlns="http://www.w3.org/2000/svg" xmlns:xlink="http://www.w3.org/1999/xlink" x="0px" y="0px"
	 viewBox="0 0 65.1 66" style="enable-background:new 0 0 65.1 66;" xml:space="preserve">
<style type="text/css">
	.st0{fill:#C4D600;}
	.st1{fill:#0076A9;}
</style>
<g>
	<polygon class="st0" points="24.6,62.8 2.8,40.9 11.2,38.8 26.7,54.3 	"/>
	<path class="st1" d="M12.6,61.5c-1.9,1.9-11.8,3.2-11.8,3.2s1.3-9.9,3.2-11.8s5.4-1.6,7.8,0.8C14.2,56.1,14.6,59.5,12.6,61.5z"/>
	<path class="st1" d="M64.1,1.4c8.2,42.3-34.5,51-34.5,51L13.3,36.2C13.3,36.2,23.2-8.5,64.1,1.4z M50.5,15.7
		c-4.4-4.4-11.4-4.4-15.8,0s-4.4,11.4,0,15.8s11.4,4.4,15.8,0S54.9,20.1,50.5,15.7z"/>
	<polygon class="st0" points="23,17.1 15.3,15.1 0,29.4 19.4,29.4 	"/>
	<polygon class="st0" points="47.8,42.9 49.8,50.7 35.4,66 35.4,46.6 	"/>
</g>
</svg>
