<?xml version="1.0" encoding="utf-8"?>
<!-- Generator: Adobe Illustrator 21.0.0, SVG Export Plug-In . SVG Version: 6.00 Build 0)  -->
<svg version="1.1" id="Layer_1" xmlns="http://www.w3.org/2000/svg" xmlns:xlink="http://www.w3.org/1999/xlink" x="0px" y="0px"
	 viewBox="0 0 140.5 140.5" style="enable-background:new 0 0 140.5 140.5;" xml:space="preserve">
<style type="text/css">
	.st0{fill:#FFFFFF;}
	.st1{fill:#C4D600;}
</style>
<g>
	<g>
		<polygon class="st0" points="70.3,140.5 46.3,116.6 51.6,111.2 70.3,129.9 88.9,111.2 94.2,116.6 		"/>
	</g>
	<g>
		<polygon class="st0" points="51.6,29.3 46.3,24 70.3,0 94.2,24 88.9,29.3 70.3,10.7 		"/>
	</g>
	<g>
		<polygon class="st0" points="116.6,94.2 111.2,88.9 129.9,70.3 111.2,51.6 116.6,46.3 140.5,70.3 		"/>
	</g>
	<g>
		<polygon class="st0" points="24,94.2 0,70.3 24,46.3 29.3,51.6 10.7,70.3 29.3,88.9 		"/>
	</g>
	<path class="st1" d="M70.3,43.2c-17,0-30.9,13.8-30.9,30.9c0,7.7,2.8,14.8,7.5,20.2c5.7-6.5,14-10.7,23.3-10.7
		c9.3,0,17.7,4.1,23.3,10.7c4.7-5.4,7.5-12.5,7.5-20.2C101.1,57,87.3,43.2,70.3,43.2z M80.4,69.1c0,5.6-4.6,10.2-10.2,10.2
		c-5.6,0-10.2-4.6-10.2-10.2v-8.2c0-5.6,4.6-10.2,10.2-10.2c5.6,0,10.2,4.6,10.2,10.2V69.1z"/>
</g>
</svg>
