<?xml version="1.0" encoding="utf-8"?>
<!-- Generator: Adobe Illustrator 21.0.0, SVG Export Plug-In . SVG Version: 6.00 Build 0)  -->
<svg version="1.1" id="Layer_1" xmlns="http://www.w3.org/2000/svg" xmlns:xlink="http://www.w3.org/1999/xlink" x="0px" y="0px"
	 viewBox="0 0 104.2 95.9" style="enable-background:new 0 0 104.2 95.9;" xml:space="preserve">
<style type="text/css">
	.st0{fill:#FFFFFF;}
	.st1{fill:#C4D600;}
	.st2{fill:#0076A9;}
</style>
<rect x="3.8" y="47.6" class="st0" width="28.6" height="44.5"/>
<rect x="39.7" y="25.9" class="st0" width="28.6" height="66.2"/>
<rect x="75.6" y="0" class="st1" width="28.6" height="92.1"/>
<g>
	<path class="st2" d="M21.3,78.9h-4.1v-7.9c0-1,0-1.8,0.1-2.6c-0.3,0.3-0.6,0.6-0.9,1l-1.7,1.4l-2.1-2.6l5.1-4.2h3.6V78.9z"/>
</g>
<g>
	<path class="st2" d="M59.3,55.6H48.5v-2.7l3.6-3.7c1-1.1,1.7-1.8,2-2.2c0.3-0.4,0.5-0.7,0.7-1s0.2-0.6,0.2-0.9
		c0-0.4-0.1-0.7-0.4-0.9c-0.3-0.2-0.6-0.3-1.1-0.3c-0.5,0-0.9,0.1-1.4,0.4s-1,0.7-1.6,1.2l-2.2-2.6c0.8-0.7,1.4-1.2,1.9-1.5
		c0.5-0.3,1.1-0.5,1.7-0.7c0.6-0.2,1.3-0.2,2.1-0.2c1,0,1.8,0.2,2.6,0.5s1.3,0.8,1.8,1.5c0.4,0.6,0.6,1.3,0.6,2.1
		c0,0.6-0.1,1.1-0.2,1.6c-0.1,0.5-0.4,1-0.7,1.5s-0.7,1-1.2,1.5c-0.5,0.5-1.6,1.5-3.2,3v0.1h5.7V55.6z"/>
</g>
<g>
	<path class="st2" d="M94.7,18.6c0,0.9-0.3,1.7-0.8,2.4c-0.6,0.7-1.4,1.1-2.5,1.4v0.1c2.5,0.3,3.7,1.5,3.7,3.5
		c0,1.4-0.5,2.5-1.7,3.3c-1.1,0.8-2.6,1.2-4.6,1.2c-0.8,0-1.5-0.1-2.2-0.2c-0.7-0.1-1.4-0.3-2.2-0.6v-3.4c0.7,0.3,1.3,0.6,2,0.7
		c0.7,0.2,1.3,0.2,1.9,0.2c0.9,0,1.5-0.1,1.9-0.4c0.4-0.2,0.6-0.6,0.6-1.2c0-0.4-0.1-0.7-0.3-0.9c-0.2-0.2-0.6-0.4-1-0.5
		c-0.5-0.1-1.1-0.2-1.8-0.2h-0.9v-3h0.9c2.1,0,3.1-0.5,3.1-1.6c0-0.4-0.2-0.7-0.5-0.9c-0.3-0.2-0.7-0.3-1.2-0.3c-1,0-1.9,0.3-3,1
		l-1.7-2.7c0.8-0.5,1.6-0.9,2.4-1.2s1.8-0.3,2.8-0.3c1.5,0,2.8,0.3,3.6,0.9C94.3,16.6,94.7,17.5,94.7,18.6z"/>
</g>
<g>
	<polygon class="st1" points="104.2,95.9 0,95.9 0,0 7.5,0 7.5,88.4 104.2,88.4 	"/>
</g>
</svg>
