<?xml version="1.0" encoding="utf-8"?>
<!-- Generator: Adobe Illustrator 21.0.0, SVG Export Plug-In . SVG Version: 6.00 Build 0)  -->
<svg version="1.1" id="Layer_1" xmlns="http://www.w3.org/2000/svg" xmlns:xlink="http://www.w3.org/1999/xlink" x="0px" y="0px"
	 viewBox="0 0 129.9 96.1" style="enable-background:new 0 0 129.9 96.1;" xml:space="preserve">
<style type="text/css">
	.st0{fill:#FFFFFF;}
	.st1{fill:#C4D600;}
	.st2{fill:#0076A9;}
</style>
<path class="st0" d="M127.8,86.5l-15.7-12c1.2-1.6,1.9-3.5,1.9-5.6V9.1c0-5-4.1-9.1-9.1-9.1H25c-5,0-9.1,4.1-9.1,9.1v59.8
	c0,2.1,0.7,4.1,1.9,5.6l-15.7,12c-3.9,3-2,9.5,3,9.6c0,0,0.1,0,0.1,0h119.6c0,0,0.1,0,0.1,0C129.8,96,131.8,89.5,127.8,86.5z
	 M23.4,9.1c0-0.9,0.7-1.6,1.6-1.6h80c0.9,0,1.6,0.7,1.6,1.6v59.8c0,0.9-0.7,1.6-1.6,1.6H25c-0.9,0-1.6-0.7-1.6-1.6V9.1z"/>
<circle class="st1" cx="65" cy="39" r="20"/>
<g>
	<polygon class="st2" points="61.3,50.1 51.7,40.5 55.3,37 61.3,43 74.6,29.7 78.2,33.3 	"/>
</g>
</svg>
