<?xml version="1.0" encoding="utf-8"?>
<!-- Generator: Adobe Illustrator 21.0.0, SVG Export Plug-In . SVG Version: 6.00 Build 0)  -->
<svg version="1.1" id="Layer_1" xmlns="http://www.w3.org/2000/svg" xmlns:xlink="http://www.w3.org/1999/xlink" x="0px" y="0px"
	 viewBox="0 0 52.5 63.8" style="enable-background:new 0 0 52.5 63.8;" xml:space="preserve">
<style type="text/css">
	.st0{fill:#0076A9;}
	.st1{fill:#C4D600;}
	.st2{fill:none;stroke:#0076A9;stroke-width:3.7921;stroke-miterlimit:10;}
</style>
<g>
	<path class="st0" d="M52.5,52.6c0,0-11.8,11.3-26.2,11.3S0,52.6,0,52.6s11.8-11.3,26.2-11.3S52.5,52.6,52.5,52.6z"/>
	<path class="st1" d="M26.2,36.4L26.2,36.4C19.5,36.4,14,31,14,24.2v-12C14,5.5,19.5,0,26.2,0h0C33,0,38.4,5.5,38.4,12.2v12
		C38.4,31,33,36.4,26.2,36.4z"/>
	<path class="st0" d="M40.6,24.8L40.6,24.8c-0.1,0-0.3-0.1-0.3-0.3V11.9c0-0.1,0.1-0.3,0.3-0.3h0c3.3,0,6.1,2.7,6.1,6.1v1.1
		C46.7,22.1,44,24.8,40.6,24.8z"/>
	<path class="st2" d="M45,19.2v11c0,4.8-3.9,8.7-8.7,8.7h-4"/>
</g>
</svg>
