<?xml version="1.0" encoding="utf-8"?>
<!-- Generator: Adobe Illustrator 21.0.0, SVG Export Plug-In . SVG Version: 6.00 Build 0)  -->
<svg version="1.1" id="Layer_1" xmlns="http://www.w3.org/2000/svg" xmlns:xlink="http://www.w3.org/1999/xlink" x="0px" y="0px"
	 viewBox="0 0 99.7 96.4" style="enable-background:new 0 0 99.7 96.4;" xml:space="preserve">
<style type="text/css">
	.st0{fill:#FFFFFF;}
	.st1{fill:#C4D600;}
</style>
<g>
	<path class="st0" d="M49.9,23.1c-13,0-23.5,10.5-23.5,23.5c0,0,0,6.1,2.4,10.3c0,0,8,12.6,8,21h13.2h13.2c0-8.4,8-21,8-21
		c2.4-4.2,2.4-10.3,2.4-10.3C73.4,33.6,62.8,23.1,49.9,23.1z"/>
	<rect x="35.2" y="84" class="st0" width="29.3" height="4.3"/>
	<rect x="35.2" y="92" class="st0" width="29.3" height="4.3"/>
	<rect x="47.3" class="st1" width="5.1" height="11"/>
	<rect x="88.7" y="47.3" class="st1" width="11" height="5.1"/>
	<rect y="47.3" class="st1" width="11" height="5.1"/>
	<rect x="75.7" y="16" transform="matrix(0.707 -0.7072 0.7072 0.707 10.7056 62.8492)" class="st1" width="11" height="5.1"/>
	<rect x="13" y="78.7" transform="matrix(0.7071 -0.7071 0.7071 0.7071 -52.0021 36.8688)" class="st1" width="11" height="5.1"/>
	<rect x="78.7" y="75.7" transform="matrix(0.7071 -0.7071 0.7071 0.7071 -33.637 81.2124)" class="st1" width="5.1" height="11"/>
	<rect x="16" y="13" transform="matrix(0.7071 -0.7071 0.7071 0.7071 -7.6647 18.5023)" class="st1" width="5.1" height="11"/>
</g>
</svg>
