<?xml version="1.0" encoding="utf-8"?>
<!-- Generator: Adobe Illustrator 21.0.0, SVG Export Plug-In . SVG Version: 6.00 Build 0)  -->
<svg version="1.1" id="Layer_1" xmlns="http://www.w3.org/2000/svg" xmlns:xlink="http://www.w3.org/1999/xlink" x="0px" y="0px"
	 viewBox="0 0 73.1 81.8" style="enable-background:new 0 0 73.1 81.8;" xml:space="preserve">
<style type="text/css">
	.st0{fill:#0076A9;}
	.st1{fill:#C4D600;}
</style>
<g>
	<g>
		<path class="st0" d="M73.1,26.2V12.7h0c0-0.2,0-0.3,0-0.5C73.1,5.2,62.4,0,48.2,0S23.2,5.2,23.2,12.2c0,0.2,0,0.3,0,0.5h0v17.1
			c0.4,0,0.7,0,1.1,0c0.2,0,0.4,0,0.6,0c1.1,0,2.2,0,3.3,0.1c1.9,0.1,3.6,0.3,5.3,0.6c-3.5-1.3-5.3-2.9-5.3-4.3h0v-6.5
			c4.5,2.9,11.6,4.7,19.9,4.7c8.3,0,15.5-1.8,19.9-4.7v6.6c-0.1,2.6-7.2,6.4-19.9,6.4c-3.2,0-6-0.2-8.4-0.6c3.9,1.4,7,3.3,8.6,5.6
			c9.3,0,15.7-1.7,19.7-4.2v6.1c0,2.4-6.3,5.7-18.2,6v5c6.6-0.2,13.7-1.3,18.2-3.8v5.8c0,2.8-7.1,6.8-18.2,7.1v5
			c13.4-0.4,23.2-5.5,23.2-12.1V39.6V26.3C73.1,26.3,73.1,26.2,73.1,26.2L73.1,26.2z M48.2,19.3c-12.2,0-19.9-4.2-19.9-7.2
			S36,5,48.2,5c12.2,0,19.9,4.2,19.9,7.2S60.3,19.3,48.2,19.3z"/>
	</g>
	<path class="st1" d="M48.4,37.6c-1.7-2.3-4.7-4.2-8.6-5.6c-1.9-0.6-3.9-1.2-6.2-1.6c-1.7-0.3-3.5-0.5-5.3-0.6
		c-1.1-0.1-2.2-0.1-3.3-0.1c-0.2,0-0.4,0-0.6,0c-0.4,0-0.7,0-1.1,0C9.9,30.2,0,35.3,0,41.9v13.6v14.1c0,6.9,10.7,12.2,24.9,12.2
		s24.9-5.2,24.9-12.2v-5v-5v-4v-5v-5v-3.6C49.9,40.4,49.3,39,48.4,37.6z M44.9,64.6v5.1c0,2.9-7.8,7.2-19.9,7.2
		C12.8,76.8,5,72.6,5,69.7v-6.6c4.5,2.9,11.6,4.7,19.9,4.7c7,0,13.2-1.3,17.6-3.4c0.8-0.4,1.6-0.8,2.3-1.3V64.6z M44.9,55.6
		c0,1.1-1.1,2.4-3.2,3.6c-2.1,1.2-5.2,2.3-9,2.9c-2.3,0.4-4.9,0.6-7.7,0.6C12.8,62.8,5,58.5,5,55.6v-6.2c4.2,2.7,10.8,4.5,18.4,4.7
		c0.5,0,1,0,1.5,0c1.3,0,2.6,0,3.9-0.1c5.7-0.4,10.7-1.7,14.4-3.6c0.6-0.3,1.1-0.6,1.6-0.9v1.1V55.6z M23.2,34.8c0.6,0,1.1,0,1.7,0
		c1.1,0,2.2,0,3.3,0.1c1.4,0.1,2.7,0.2,4,0.4c2.4,0.4,4.6,0.9,6.4,1.6c4,1.5,6.3,3.4,6.3,5c0,1-0.9,2.2-2.7,3.3
		c-2,1.3-5,2.4-8.8,3.1c-1.6,0.3-3.3,0.5-5.2,0.6c-1.1,0.1-2.2,0.1-3.3,0.1c-0.6,0-1.1,0-1.7,0C12.1,48.7,5,44.7,5,41.9
		S12.1,35.2,23.2,34.8z"/>
</g>
</svg>
