<?xml version="1.0" encoding="utf-8"?>
<!-- Generator: Adobe Illustrator 21.0.0, SVG Export Plug-In . SVG Version: 6.00 Build 0)  -->
<svg version="1.1" id="Layer_1" xmlns="http://www.w3.org/2000/svg" xmlns:xlink="http://www.w3.org/1999/xlink" x="0px" y="0px"
	 viewBox="0 0 89.6 82.3" style="enable-background:new 0 0 89.6 82.3;" xml:space="preserve">
<style type="text/css">
	.st0{fill:#C4D600;}
	.st1{fill:#FFFFFF;}
</style>
<g>
	<g>
		<g>
			<path class="st0" d="M28.4,66.1"/>
		</g>
	</g>
	<g>
		<g>
			<path class="st0" d="M22.2,55.6"/>
		</g>
	</g>
	<g>
		<g>
			<rect x="28.4" y="63.6" class="st0" width="32.8" height="5"/>
		</g>
	</g>
	<g>
		<g>
			<rect x="13.9" y="38.7" transform="matrix(0.5 -0.866 0.866 0.5 -20.3689 47.0322)" class="st0" width="33.3" height="5"/>
		</g>
	</g>
	<g>
		<g>
			<rect x="56.8" y="24.5" transform="matrix(0.866 -0.5 0.5 0.866 -12.597 35.169)" class="st0" width="5" height="33.1"/>
		</g>
	</g>
</g>
<g>
	<g>
		<g>
			<path class="st1" d="M45,32.4c-8.9,0-16.2-7.3-16.2-16.2S36,0,45,0s16.2,7.3,16.2,16.2S53.9,32.4,45,32.4z M45,8
				c-4.5,0-8.2,3.7-8.2,8.2s3.7,8.2,8.2,8.2s8.2-3.7,8.2-8.2S49.5,8,45,8z"/>
		</g>
	</g>
	<g>
		<g>
			<path class="st1" d="M16.2,82.3C7.3,82.3,0,75.1,0,66.1s7.3-16.2,16.2-16.2s16.2,7.3,16.2,16.2S25.1,82.3,16.2,82.3z M16.2,57.9
				c-4.5,0-8.2,3.7-8.2,8.2s3.7,8.2,8.2,8.2s8.2-3.7,8.2-8.2S20.7,57.9,16.2,57.9z"/>
		</g>
	</g>
	<g>
		<g>
			<path class="st1" d="M73.4,82.3c-8.9,0-16.2-7.3-16.2-16.2s7.3-16.2,16.2-16.2s16.2,7.3,16.2,16.2S82.4,82.3,73.4,82.3z
				 M73.4,57.9c-4.5,0-8.2,3.7-8.2,8.2s3.7,8.2,8.2,8.2s8.2-3.7,8.2-8.2S77.9,57.9,73.4,57.9z"/>
		</g>
	</g>
</g>
</svg>
