<?xml version="1.0" encoding="utf-8"?>
<!-- Generator: Adobe Illustrator 21.0.0, SVG Export Plug-In . SVG Version: 6.00 Build 0)  -->
<svg version="1.1" id="Layer_1" xmlns="http://www.w3.org/2000/svg" xmlns:xlink="http://www.w3.org/1999/xlink" x="0px" y="0px"
	 viewBox="0 0 87 76.8" style="enable-background:new 0 0 87 76.8;" xml:space="preserve">
<style type="text/css">
	.st0{fill:#0076A9;}
	.st1{fill:#C4D600;}
</style>
<g>
	<g>
		<path class="st0" d="M64.9,76.8H22.1c-2.7,0-4.9-2.2-4.9-4.9V30.3H7.4c-2.4,0-4.4-1.7-4.8-4L0.1,12.4c-0.4-2.4,1-4.8,3.4-5.5
			l22.4-6.8C26.6-0.1,27.4,0,28,0.5c0.6,0.5,1,1.2,1,2c0,6,3.1,7.6,14.5,7.6S58,8.5,58,2.5c0-0.8,0.4-1.5,1-2
			c0.6-0.5,1.5-0.6,2.2-0.4l22.4,6.8c2.4,0.7,3.8,3.1,3.4,5.5l-2.5,13.9c-0.4,2.3-2.4,4-4.8,4h-9.8v41.6
			C69.8,74.6,67.6,76.8,64.9,76.8z M22.2,71.8h42.5V30.2c0-2.7,2.2-4.9,4.9-4.9h9.9L82,11.6L62.7,5.8c-1.9,9.3-12.1,9.3-19.2,9.3
			s-17.3,0-19.2-9.3L5,11.6l2.5,13.7h9.9c2.7,0,4.9,2.2,4.9,4.9V71.8z"/>
	</g>
	<g>
		<path class="st1" d="M45.8,28.7h-4.6c-0.8,0-1.2-0.6-1.5-1.5l-2.6-7.4c0-0.8,0.7-1.5,1.5-1.5h9.8c0.8,0,1.5,0.7,1.5,1.5l-2.6,7.4
			C47,28.2,46.6,28.7,45.8,28.7z"/>
	</g>
	<g>
		<path class="st1" d="M45.4,61.3l4.5-6.2c0.3-0.4,0.4-0.8,0.3-1.2l-3.5-20.6c-0.2-0.9-1.1-1.6-2.1-1.6h-1h-1c-1.1,0-2,0.7-2.1,1.6
			l-3.5,20.6c-0.1,0.4,0,0.9,0.3,1.2l4.5,6.2C44.4,65.1,42.6,65.1,45.4,61.3z"/>
	</g>
</g>
</svg>
