<?xml version="1.0" encoding="utf-8"?>
<!-- Generator: Adobe Illustrator 21.0.0, SVG Export Plug-In . SVG Version: 6.00 Build 0)  -->
<svg version="1.1" id="Layer_1" xmlns="http://www.w3.org/2000/svg" xmlns:xlink="http://www.w3.org/1999/xlink" x="0px" y="0px"
	 viewBox="0 0 71.2 87" style="enable-background:new 0 0 71.2 87;" xml:space="preserve">
<style type="text/css">
	.st0{fill:#0076A9;}
	.st1{fill:#C4D600;}
</style>
<g>
	<g>
		<g>
			<path class="st0" d="M56.7,76.2c0,0-11.2,10.8-25.1,10.8S6.5,76.2,6.5,76.2s11.2-10.8,25.1-10.8S56.7,76.2,56.7,76.2z"/>
		</g>
	</g>
	<g>
		<g>
			<path class="st1" d="M31.6,62L31.6,62c-5.5,0-10-4.5-10-10v-9.9c0-5.5,4.5-10,10-10h0c5.5,0,10,4.5,10,10V52
				C41.6,57.5,37.1,62,31.6,62z"/>
		</g>
	</g>
	<g>
		<path class="st0" d="M45.9,28.5c-0.5,0-1.1-0.2-1.5-0.6c-0.8-0.8-0.9-2.1,0-3L63.5,5.2c0.8-0.8,2.1-0.9,3,0c0.8,0.8,0.9,2.1,0,3
			L47.4,27.9C47,28.3,46.4,28.5,45.9,28.5z"/>
	</g>
	<g>
		<path class="st0" d="M6.3,35.9c-0.6,0-1.1-0.2-1.6-0.7C4,34.3,4,33,4.9,32.2L29.1,10l18.1,14.8c0.9,0.7,1,2.1,0.3,3
			c-0.7,0.9-2.1,1-3,0.3L29.2,15.6L7.8,35.3C7.3,35.7,6.8,35.9,6.3,35.9z"/>
	</g>
	<g>
		<circle class="st1" cx="6.3" cy="33.8" r="6.3"/>
	</g>
	<g>
		<circle class="st1" cx="29.1" cy="12.8" r="5.9"/>
	</g>
	<g>
		<circle class="st1" cx="45.9" cy="26.4" r="5.9"/>
	</g>
	<g>
		<g>
			<path class="st1" d="M64.3,10.8l2.7,2.7c0.2,0.2,0.7,0.1,0.8-0.2L69.5,7l1.7-6.4c0.1-0.3-0.2-0.7-0.6-0.6l-6.4,1.7l-6.4,1.7
				c-0.3,0.1-0.5,0.5-0.2,0.8l2.6,2.6"/>
		</g>
	</g>
</g>
</svg>
