<?xml version="1.0" encoding="utf-8"?>
<!-- Generator: Adobe Illustrator 21.0.0, SVG Export Plug-In . SVG Version: 6.00 Build 0)  -->
<svg version="1.1" id="Layer_1" xmlns="http://www.w3.org/2000/svg" xmlns:xlink="http://www.w3.org/1999/xlink" x="0px" y="0px"
	 viewBox="0 0 80.6 70.3" style="enable-background:new 0 0 80.6 70.3;" xml:space="preserve">
<style type="text/css">
	.st0{fill:#C4D600;}
	.st1{fill:#0076A9;}
</style>
<g>
	<polygon class="st0" points="67.8,66.8 67.8,54 80.6,54 80.6,39.2 67.8,39.2 67.8,26.4 53,26.4 53,39.2 40.2,39.2 40.2,54 53,54 
		53,66.8 	"/>
	<path class="st1" d="M34.8,59.5V33.8h12.8V21H71c0-0.4,0-0.9,0-1.3C71,8.8,62.2,0,51.3,0c-6.5,0-12.2,3.2-15.8,8
		c-3.6-4.9-9.3-8-15.8-8C8.8,0,0,8.8,0,19.7c0,4.1,1.2,7.8,3.3,11h0l32.2,39.7l8.8-10.8H34.8z"/>
</g>
</svg>
