<?xml version="1.0" encoding="utf-8"?>
<!-- Generator: Adobe Illustrator 21.0.0, SVG Export Plug-In . SVG Version: 6.00 Build 0)  -->
<svg version="1.1" id="Layer_1" xmlns="http://www.w3.org/2000/svg" xmlns:xlink="http://www.w3.org/1999/xlink" x="0px" y="0px"
	 viewBox="0 0 92.5 74" style="enable-background:new 0 0 92.5 74;" xml:space="preserve">
<style type="text/css">
	.st0{fill:#0076A9;}
	.st1{fill:#C4D600;}
</style>
<g>
	<path class="st0" d="M91.7,34.5c-1-1-2.6-1-3.6,0L77.3,45.3H51.2c-0.8,0-1.5,0.4-2,1l-9,11.6H2.6C1.1,57.9,0,59,0,60.5
		S1.1,63,2.6,63h15.1l-5.1,6.9c-0.8,1.1-0.6,2.7,0.5,3.6c0.5,0.3,1,0.5,1.5,0.5c0.8,0,1.6-0.4,2.1-1L24,63h25l7.4,9.9
		c0.5,0.7,1.3,1,2.1,1c0.5,0,1.1-0.2,1.5-0.5c1.1-0.8,1.4-2.5,0.5-3.6L55.5,63h10.3c0.7,0,1.3-0.3,1.8-0.8l24.2-24.2
		C92.7,37.1,92.7,35.5,91.7,34.5z M64.7,57.9h-18l5.8-7.5h19.7L64.7,57.9z"/>
	<path class="st1" d="M30.8,0C8.6,0,3.1,16.4,1.9,26.2c-0.1,1.1,1.3,1.7,2,0.8c1.8-2.1,4.4-3.4,7.4-3.4c3.8,0,7.1,2.2,8.7,5.4
		c0.4,0.9,1.6,0.9,2.1,0c1.2-2.4,3.5-4.3,6.1-5v28.8h5.1V24c2.7,0.7,4.9,2.6,6.1,5c0.4,0.9,1.6,0.9,2.1,0c1.6-3.2,4.9-5.4,8.7-5.4
		c3,0,5.6,1.3,7.4,3.4c0.7,0.9,2.2,0.3,2-0.8C58.4,16.4,52.9,0,30.8,0z"/>
</g>
</svg>
