<?xml version="1.0" encoding="utf-8"?>
<!-- Generator: Adobe Illustrator 20.1.0, SVG Export Plug-In . SVG Version: 6.00 Build 0)  -->
<svg version="1.1" id="Layer_1" xmlns="http://www.w3.org/2000/svg" xmlns:xlink="http://www.w3.org/1999/xlink" x="0px" y="0px"
	 viewBox="0 0 367.8 389.2" style="enable-background:new 0 0 367.8 389.2;" xml:space="preserve">
<style type="text/css">
	.st0{fill:#003764;}
	.st1{fill:#0084AD;stroke:#003764;stroke-width:11;stroke-miterlimit:10;}
	.st2{fill:#0076A9;stroke:#003764;stroke-width:11;stroke-miterlimit:10;}
	.st3{fill:#00BFD6;stroke:#003764;stroke-width:11;stroke-miterlimit:10;}
	.st4{fill:#00ACC8;stroke:#003764;stroke-width:11;stroke-miterlimit:10;}
	.st5{fill:none;stroke:#FFFFFF;stroke-width:9;stroke-miterlimit:10;}
	.st6{fill:none;stroke:#FFFFFF;stroke-width:9;stroke-miterlimit:10;stroke-dasharray:24.5472,24.5472;}
	.st7{fill:#C4D600;stroke:#003764;stroke-width:11;stroke-miterlimit:10;}
	.st8{fill:#FFFFFF;}
</style>
<g>
	<circle class="st0" cx="183.9" cy="205.3" r="183.9"/>
	<path class="st1" d="M8.4,205h175.8L41.9,101.6C20.9,130.6,8.4,166.3,8.4,205z"/>
	<path class="st2" d="M360,205c0-38.6-12.4-74.3-33.5-103.3L184.2,205H360z"/>
	<path class="st3" d="M184.2,29.2c-19,0-37.2,3-54.3,8.6L184.2,205l54.3-167.2C221.4,32.2,203.2,29.2,184.2,29.2z"/>
	<path class="st4" d="M41.9,101.6L184.2,205L129.9,37.7C94.2,49.3,63.5,71.9,41.9,101.6z"/>
	<path class="st5" d="M59.1,205.3c0-68.9,55.9-124.8,124.8-124.8s124.8,55.9,124.8,124.8"/>
	<g>
		<g>
			<path class="st5" d="M308.7,205.3c0,4-0.2,8-0.6,12"/>
			<path class="st6" d="M303.4,241.3c-15.5,51.4-63.1,88.8-119.6,88.8c-60.7,0-111.3-43.3-122.5-100.7"/>
			<path class="st5" d="M59.6,217.3c-0.4-3.9-0.6-7.9-0.6-12"/>
		</g>
	</g>
	<path class="st7" d="M248.3,6.9l-64.5,198.4L352.6,82.7C327,47.5,290.6,20.6,248.3,6.9z"/>
	<circle class="st0" cx="183.9" cy="205.3" r="71.5"/>
	<path class="st8" d="M196.1,179.7c-13,28-27.5,54.6-46,76.9c-1-0.7-1.9-1.4-2.9-2.1c0.3-0.9,0.6-1.9,1.2-2.9
		c2.1-1.5,6.6-10.8,10.4-16.4L196.1,179.7z"/>
	<path class="st8" d="M183.1,181.3c-7.9,6.2-23.9,10.4-34.2,12.7c-8.4,1.9-18.9,5.9-18.7-4.2c1.8-0.8,4.2-1,5.2-2.6
		c-0.7-0.7-0.5-2.3-0.5-3.7c2.9-2.9,5-1.4,7.8-1.6c10.3-0.8,15.7-4.4,24.9-9c5.7-2.9,11.6-5.8,17.1-8.5c5.5-2.6,11.8-4.5,18.1-7.4
		c2.9-1.3,6-4.1,9-6.4c-8.3-4.3-17.7-6.8-27.7-6.8c-33.9-0.1-61.4,27.4-61.5,61.3c-0.1,17.3,7,32.9,18.4,44.2
		c2.9-4.3,5.6-8.8,7.9-13C159.5,217.4,174.1,200.6,183.1,181.3L183.1,181.3z"/>
	<path class="st8" d="M165.5,250.1c2-0.3,2.1-2.4,3.1-3.7C167.5,247.5,165.2,247.5,165.5,250.1L165.5,250.1z"/>
	<path class="st8" d="M226.3,160.9c-2.8,23.5-5.2,51.3-6.9,72.7c-0.2,1.9-2.3-0.9-2.1,0.5c0.2,2.3-0.7,2.6,0,4.2
		c-10.4,5.7-10.3-7.5-9.3-18c1.5-15.7,7.3-37.3,2.6-51.8c-1.1,3.8-3.3,7.4-5.2,11.6c9,1.4,4.3,7.5,1,13.8
		c-7.1,13.5-13.6,28.6-21.3,38.1c0.4,1,1.6,0.4,0.5,1.6c-7.1,8.3-10.6,23.7-22.5,29.5c6.4,2.3,13.3,3.6,20.5,3.7
		c33.9,0.1,61.4-27.3,61.5-61.3C245.2,188,238,172.2,226.3,160.9L226.3,160.9z"/>
</g>
</svg>
