<?xml version="1.0" encoding="utf-8"?>
<!-- Generator: Adobe Illustrator 21.0.0, SVG Export Plug-In . SVG Version: 6.00 Build 0)  -->
<svg version="1.1" id="Layer_1" xmlns="http://www.w3.org/2000/svg" xmlns:xlink="http://www.w3.org/1999/xlink" x="0px" y="0px"
	 viewBox="0 0 194.8 148.8" style="enable-background:new 0 0 194.8 148.8;" xml:space="preserve">
<style type="text/css">
	.st0{fill:#0084AD;}
	.st1{fill:none;stroke:#003764;stroke-width:5.911;stroke-miterlimit:10;}
	.st2{fill:#0076A9;}
	.st3{fill:#00BFD6;}
	.st4{fill:#00ACC8;}
	.st5{fill:none;stroke:#FFFFFF;stroke-width:4.836;stroke-miterlimit:10;}
	.st6{fill:#C4D600;}
	.st7{fill:#003764;}
	.st8{fill:#FFFFFF;}
</style>
<path class="st0" d="M409,6689.2h94.5l-76.4-55.5C415.6,6649.3,409,6668.5,409,6689.2"/>
<path class="st1" d="M409,6689.2h94.5l-76.4-55.5C415.6,6649.3,409,6668.5,409,6689.2z"/>
<path class="st2" d="M597.9,6689.2c0-20.8-6.7-40-18-55.5l-76.4,55.5H597.9z"/>
<path class="st1" d="M597.9,6689.2c0-20.8-6.7-40-18-55.5l-76.4,55.5H597.9z"/>
<path class="st3" d="M503.4,6594.8c-10.2,0-20,1.6-29.2,4.6l29.2,89.9l29.2-89.9C523.4,6596.4,513.6,6594.8,503.4,6594.8"/>
<path class="st1" d="M503.4,6594.8c-10.2,0-20,1.6-29.2,4.6l29.2,89.9l29.2-89.9C523.4,6596.4,513.6,6594.8,503.4,6594.8z"/>
<path class="st4" d="M427,6633.7l76.4,55.5l-29.2-89.9C455.1,6605.6,438.6,6617.7,427,6633.7"/>
<path class="st1" d="M427,6633.7l76.4,55.5l-29.2-89.9C455.1,6605.6,438.6,6617.7,427,6633.7z"/>
<path class="st5" d="M436.2,6689.4c0-37,30-67.1,67.1-67.1c37,0,67.1,30,67.1,67.1"/>
<path class="st6" d="M537.9,6582.8l-34.6,106.6l90.7-65.9C580.2,6604.6,560.6,6590.2,537.9,6582.8"/>
<path class="st1" d="M537.9,6582.8l-34.6,106.6l90.7-65.9C580.2,6604.6,560.6,6590.2,537.9,6582.8z"/>
<path class="st7" d="M503.3,6727.8c-21.2,0-38.4-17.2-38.4-38.4s17.2-38.4,38.4-38.4c21.2,0,38.4,17.2,38.4,38.4"/>
<path class="st7" d="M541.7,6689.4c0,21.2-17.2,38.4-38.4,38.4"/>
<path class="st8" d="M509.8,6675.6c-7,15.1-14.8,29.3-24.7,41.3c-0.5-0.4-1-0.7-1.6-1.1c0.2-0.5,0.3-1,0.6-1.6
	c1.1-0.8,3.5-5.8,5.6-8.8L509.8,6675.6z M502.8,6676.5c-4.2,3.3-12.9,5.6-18.4,6.8c-4.5,1-10.1,3.2-10-2.3c1-0.4,2.2-0.6,2.8-1.4
	c-0.4-0.4-0.3-1.2-0.3-2c1.5-1.5,2.7-0.7,4.2-0.8c5.5-0.5,8.5-2.3,13.4-4.8c3.1-1.6,6.2-3.1,9.2-4.6c2.9-1.4,6.3-2.4,9.8-4
	c1.5-0.7,3.2-2.2,4.8-3.4c-4.5-2.3-9.5-3.6-14.9-3.7c-18.2-0.1-33,14.7-33,33c0,9.3,3.8,17.7,9.9,23.7c1.6-2.3,3-4.7,4.2-7
	C490.2,6695.9,498,6686.9,502.8,6676.5 M493.4,6713.5c1.1-0.2,1.1-1.3,1.7-2C494.5,6712.1,493.2,6712.1,493.4,6713.5 M526.1,6665.6
	c-1.5,12.7-2.8,27.6-3.7,39.1c-0.1,1-1.2-0.5-1.1,0.3c0.1,1.3-0.4,1.4,0,2.3c-5.6,3.1-5.6-4-5-9.7c0.8-8.4,3.9-20.1,1.4-27.9
	c-0.6,2-1.8,4-2.8,6.3c4.9,0.8,2.3,4,0.6,7.4c-3.8,7.3-7.3,15.4-11.4,20.5c0.2,0.5,0.8,0.2,0.3,0.9c-3.8,4.4-5.7,12.7-12.1,15.9
	c3.4,1.2,7.1,2,11,2c18.2,0.1,33-14.7,33.1-33C536.2,6680.1,532.3,6671.6,526.1,6665.6"/>
<g>
	<path class="st0" d="M3,110.1h94.5L21,54.6C9.6,70.2,3,89.4,3,110.1"/>
	<path class="st1" d="M3,110.1h94.5L21,54.6C9.6,70.2,3,89.4,3,110.1z"/>
	<path class="st2" d="M191.9,110.1c0-20.8-6.7-40-18-55.5l-76.4,55.5H191.9z"/>
	<path class="st1" d="M191.9,110.1c0-20.8-6.7-40-18-55.5l-76.4,55.5H191.9z"/>
	<path class="st3" d="M97.4,15.7c-10.2,0-20,1.6-29.2,4.6l29.2,89.9l29.2-89.9C117.4,17.3,107.6,15.7,97.4,15.7"/>
	<path class="st1" d="M97.4,15.7c-10.2,0-20,1.6-29.2,4.6l29.2,89.9l29.2-89.9C117.4,17.3,107.6,15.7,97.4,15.7z"/>
	<path class="st4" d="M21,54.6l76.4,55.5L68.2,20.3C49.1,26.5,32.6,38.7,21,54.6"/>
	<path class="st1" d="M21,54.6l76.4,55.5L68.2,20.3C49.1,26.5,32.6,38.7,21,54.6z"/>
	<path class="st5" d="M30.2,110.3c0-37,30-67.1,67.1-67.1c37,0,67.1,30,67.1,67.1"/>
	<path class="st6" d="M131.9,3.7L97.3,110.3l90.7-65.9C174.2,25.5,154.6,11.1,131.9,3.7"/>
	<path class="st1" d="M131.9,3.7L97.3,110.3l90.7-65.9C174.2,25.5,154.6,11.1,131.9,3.7z"/>
	<path class="st7" d="M97.3,148.8c-21.2,0-38.4-17.2-38.4-38.4c0-21.2,17.2-38.4,38.4-38.4c21.2,0,38.4,17.2,38.4,38.4"/>
	<path class="st7" d="M135.7,110.3c0,21.2-17.2,38.4-38.4,38.4"/>
	<path class="st8" d="M103.8,96.6c-7,15.1-14.8,29.3-24.7,41.3c-0.5-0.4-1-0.7-1.6-1.1c0.2-0.5,0.3-1,0.6-1.6
		c1.1-0.8,3.5-5.8,5.6-8.8L103.8,96.6z"/>
	<path class="st8" d="M96.8,97.4c-4.2,3.3-12.9,5.6-18.4,6.8c-4.5,1-10.1,3.2-10-2.3c1-0.4,2.2-0.6,2.8-1.4c-0.4-0.4-0.3-1.2-0.3-2
		c1.5-1.5,2.7-0.7,4.2-0.9c5.5-0.5,8.5-2.3,13.4-4.8c3.1-1.6,6.2-3.1,9.2-4.6c2.9-1.4,6.3-2.4,9.8-4c1.5-0.7,3.2-2.2,4.8-3.4
		c-4.5-2.3-9.5-3.6-14.9-3.7c-18.2-0.1-33,14.7-33,33c0,9.3,3.8,17.7,9.9,23.7c1.6-2.3,3-4.7,4.2-7C84.2,116.8,92,107.8,96.8,97.4"
		/>
	<path class="st8" d="M87.4,134.4c1.1-0.2,1.1-1.3,1.7-2C88.5,133,87.2,133,87.4,134.4"/>
	<path class="st8" d="M120.1,86.5c-1.5,12.7-2.8,27.6-3.7,39.1c-0.1,1-1.2-0.5-1.1,0.3c0.1,1.3-0.4,1.4,0,2.3c-5.6,3.1-5.6-4-5-9.7
		c0.8-8.4,3.9-20.1,1.4-27.9c-0.6,2-1.8,4-2.8,6.3c4.9,0.8,2.3,4.1,0.6,7.4c-3.8,7.3-7.3,15.4-11.4,20.5c0.2,0.5,0.8,0.2,0.3,0.8
		c-3.8,4.4-5.7,12.7-12.1,15.9c3.4,1.2,7.1,2,11,2c18.2,0.1,33-14.7,33.1-33C130.2,101,126.3,92.5,120.1,86.5"/>
</g>
</svg>
