<?xml version="1.0" encoding="utf-8"?>
<!-- Generator: Adobe Illustrator 20.1.0, SVG Export Plug-In . SVG Version: 6.00 Build 0)  -->
<svg version="1.1" id="Layer_1" xmlns="http://www.w3.org/2000/svg" xmlns:xlink="http://www.w3.org/1999/xlink" x="0px" y="0px"
	 viewBox="0 0 897.2 147.7" style="enable-background:new 0 0 897.2 147.7;" xml:space="preserve">
<style type="text/css">
	.st0{fill:none;stroke:#C4D600;stroke-width:2.4638;stroke-miterlimit:10;}
	.st1{fill:#00BFD6;}
	.st2{fill:#00ACC8;}
	.st3{fill:#0084AD;}
	.st4{fill:#0076A9;}
</style>
<g>
	<path class="st0" d="M13.2,129.1c400.6,0,658.3-2.1,814.3-72.6"/>
	<circle class="st1" cx="13.2" cy="129.1" r="13.2"/>
	<circle class="st2" cx="205" cy="129.1" r="18.6"/>
	<circle class="st3" cx="409.2" cy="124.8" r="23"/>
	<circle class="st3" cx="627.2" cy="107" r="27.8"/>
	<g>
		<path class="st4" d="M844.4,55.7c-2.3,3.4-5,9.1-6.3,10c-0.3,0.6-0.6,1.2-0.7,1.8c0.6,0.4,1.2,0.9,1.8,1.3
			c11.3-13.6,20.2-29.8,28.1-46.8"/>
		<path class="st4" d="M859.3,22.9c-4.8,3.8-14.6,6.3-20.9,7.7c-5.1,1.1-11.5,3.6-11.4-2.6c1.1-0.5,2.6-0.6,3.2-1.6
			c-0.4-0.4-0.3-1.4-0.3-2.3c1.7-1.8,3-0.8,4.8-1c6.3-0.5,9.6-2.7,15.2-5.5c3.5-1.8,7.1-3.5,10.5-5.2c3.3-1.6,7.2-2.7,11.1-4.5
			c1.8-0.8,3.7-2.5,5.5-3.9C871.7,1.5,866,0,859.8,0c-20.7-0.1-37.5,16.7-37.6,37.3c0,10.5,4.3,20.1,11.3,26.9
			c1.8-2.6,3.4-5.3,4.8-7.9C844.8,44.9,853.7,34.6,859.3,22.9L859.3,22.9z"/>
		<path class="st4" d="M848.5,64.7c1.2-0.2,1.3-1.5,1.9-2.3C849.7,63.2,848.3,63.1,848.5,64.7L848.5,64.7z"/>
		<path class="st4" d="M885.7,10.5c-1.7,14.3-3.2,31.2-4.2,44.3c-0.1,1.1-1.4-0.6-1.3,0.3c0.1,1.4-0.4,1.6,0,2.6
			c-6.4,3.5-6.3-4.6-5.7-10.9c0.9-9.5,4.4-22.7,1.6-31.6c-0.6,2.3-2,4.5-3.2,7.1c5.5,0.9,2.6,4.6,0.6,8.4c-4.3,8.2-8.3,17.4-13,23.2
			c0.2,0.6,1,0.2,0.3,1c-4.3,5-6.5,14.4-13.8,18c3.9,1.4,8.1,2.2,12.5,2.2c20.7,0.1,37.5-16.6,37.6-37.3
			C897.2,26.9,892.8,17.3,885.7,10.5L885.7,10.5z"/>
	</g>
</g>
</svg>
