<?xml version="1.0" encoding="utf-8"?>
<!-- Generator: Adobe Illustrator 20.1.0, SVG Export Plug-In . SVG Version: 6.00 Build 0)  -->
<svg version="1.1" id="Layer_1" xmlns="http://www.w3.org/2000/svg" xmlns:xlink="http://www.w3.org/1999/xlink" x="0px" y="0px"
	 viewBox="0 0 179.9 34.6" style="enable-background:new 0 0 179.9 34.6;" xml:space="preserve">
<style type="text/css">
	.st0{fill:#787A7C;}
	.st1{fill:#78777A;}
	.st2{fill:#047491;}
	.st3{fill:#555759;}
</style>
<g>
	<path class="st0" d="M13.4,0C19.7,0,23,3.2,23,3.2l-1.9,2.8c0,0-2.9-2.6-7.4-2.6c-6.2,0-9.9,4.5-9.9,10.1c0,6.1,4.2,10.3,9.7,10.3
		c4.5,0,7.5-3.3,7.5-3.3v-3.8h-4.3v-3.2h7.6v13.2h-3.2v-1.6c0-0.6,0-1.1,0-1.1H21c0,0-2.9,3.2-8.1,3.2C5.9,27.2,0,21.6,0,13.6
		C0,6,5.7,0,13.4,0L13.4,0z"/>
	<path class="st0" d="M27.1,7.9h3.5v3.3c0,0.8-0.1,1.4-0.1,1.4h0.1c0.9-2.8,3.1-4.9,6-4.9c0.5,0,0.9,0.1,0.9,0.1v3.6
		c0,0-0.5-0.1-1-0.1c-2.3,0-4.4,1.6-5.3,4.4c-0.3,1.1-0.4,2.2-0.4,3.4v7.7h-3.6V7.9L27.1,7.9z"/>
	<path class="st1" d="M56.8,7.9h3.8l3.9,13.2c0.3,1,0.4,2,0.5,2h0.1c0,0,0.2-1,0.5-2l4.1-13.2H73l4.1,13.2c0.3,1,0.5,2,0.5,2h0.1
		c0,0,0.1-1,0.4-2l4-13.2h3.8l-6.1,18.9h-4l-3.9-12.1c-0.3-1-0.5-2.1-0.5-2.1h-0.1c0,0-0.2,1.1-0.5,2.1l-3.9,12.1h-4L56.8,7.9
		L56.8,7.9z"/>
	<path class="st1" d="M88.7,11.1h-2.5V8.2h2.6V2.7h3.5v5.4h4.5v2.9h-4.5v8.4c0,3.8,2.6,4.3,4,4.3c0.5,0,0.9-0.1,0.9-0.1v3.2
		c0,0-0.5,0.1-1.3,0.1c-2.4,0-7.2-0.7-7.2-7V11.1L88.7,11.1z"/>
	<path class="st1" d="M99,0.4h3.6v9.7c0,0.9-0.1,1.6-0.1,1.6h0.1c0.8-1.8,3.2-4.2,7-4.2c4.4,0,6.5,2.4,6.5,7.2v12.1h-3.6V15.5
		c0-2.6-0.6-4.7-3.6-4.7c-2.8,0-5.2,1.9-6,4.7c-0.2,0.7-0.3,1.6-0.3,2.5v8.8H99V0.4L99,0.4z"/>
	<path class="st2" d="M128.3,13.8c3.2,0,5.1-2,5.1-5.1c0-3.2-1.9-5-5.1-5h-5.4v10.2H128.3L128.3,13.8z M119.2,0.4h9.6
		c4.8,0,8.3,3.2,8.3,8.2c0,5-3.5,8.4-8.3,8.4h-5.9v9.7h-3.7V0.4L119.2,0.4z"/>
	<path class="st2" d="M138.7,0.4h3.6V21c0,2.3,0.9,2.7,2,2.7c0.3,0,0.6,0,0.6,0v3.2c0,0-0.6,0.1-1.2,0.1c-2.1,0-5.1-0.6-5.1-5.3V0.4
		L138.7,0.4z"/>
	<path class="st2" d="M152.9,24.3c3.1,0,5-3.2,5-6v-0.6h-0.9c-2.7,0-7.6,0.2-7.6,3.6C149.4,22.8,150.6,24.3,152.9,24.3L152.9,24.3z
		 M157.1,15h0.8v-0.3c0-3.1-1.8-4.1-4.1-4.1c-2.9,0-5.3,1.8-5.3,1.8l-1.5-2.6c0,0,2.7-2.2,7-2.2c4.8,0,7.5,2.6,7.5,7.4v11.9h-3.4V25
		c0-0.9,0.1-1.5,0.1-1.5h-0.1c0,0-1.5,3.7-6,3.7c-3.2,0-6.4-2-6.4-5.7C145.8,15.3,154,15,157.1,15L157.1,15z"/>
	<path class="st2" d="M162.6,30.7c0,0,1,0.8,2.2,0.8c1.5,0,2.7-1,3.4-2.8l0.9-2.2l-7.9-18.6h4.1l4.7,12.3c0.4,1,0.7,2.3,0.7,2.3h0.1
		c0,0,0.3-1.3,0.6-2.2L176,7.9h3.9l-8.8,22.3c-1.2,2.9-3.5,4.4-6.1,4.4c-2.1,0-3.7-1.2-3.7-1.2L162.6,30.7L162.6,30.7z"/>
	<path class="st2" d="M43.2,22.2c-0.6,0.9-1.3,2.4-1.7,2.6c-0.1,0.2-0.1,0.3-0.2,0.5c0.2,0.1,0.3,0.2,0.5,0.3
		c3-3.6,5.4-7.8,7.5-12.3"/>
	<path class="st2" d="M47.2,13.5c-1.3,1-3.9,1.7-5.6,2c-1.4,0.3-3.1,0.9-3-0.7c0.3-0.1,0.7-0.2,0.8-0.4c-0.1-0.1-0.1-0.4-0.1-0.6
		c0.5-0.5,0.8-0.2,1.3-0.3c1.7-0.1,2.6-0.7,4.1-1.4c0.9-0.5,1.9-0.9,2.8-1.4c0.9-0.4,1.9-0.7,3-1.2c0.5-0.2,1-0.7,1.5-1
		c-1.4-0.7-2.9-1.1-4.5-1.1c-5.5,0-10,4.4-10,9.8c0,2.8,1.1,5.3,3,7.1c0.5-0.7,0.9-1.4,1.3-2.1C43.4,19.3,45.7,16.6,47.2,13.5
		L47.2,13.5z"/>
	<path class="st2" d="M44.3,24.5c0.3,0,0.3-0.4,0.5-0.6C44.7,24.1,44.3,24.1,44.3,24.5L44.3,24.5z"/>
	<path class="st2" d="M54.3,10.3c-0.5,3.8-0.9,8.2-1.1,11.6c0,0.3-0.4-0.2-0.3,0.1c0,0.4-0.1,0.4,0,0.7c-1.7,0.9-1.7-1.2-1.5-2.9
		c0.3-2.5,1.2-6,0.4-8.3c-0.2,0.6-0.5,1.2-0.8,1.9c1.5,0.2,0.7,1.2,0.2,2.2c-1.2,2.2-2.2,4.6-3.5,6.1c0.1,0.2,0.3,0.1,0.1,0.3
		c-1.2,1.3-1.7,3.8-3.7,4.7c1,0.4,2.2,0.6,3.3,0.6c5.5,0,10-4.4,10-9.8C57.4,14.6,56.2,12.1,54.3,10.3L54.3,10.3z"/>
	<path class="st2" d="M43.1,26.2C43.1,26.2,43.1,26.3,43.1,26.2"/>
	<path class="st3" d="M176.9,25.3c0,0,0-0.1,0-0.1c0,0,0-0.1-0.1-0.1c0,0-0.1,0-0.1-0.1c-0.1,0-0.1,0-0.2,0l-0.2,0l0,0.6l0.2,0
		c0.1,0,0.3,0,0.3-0.1C176.9,25.4,176.9,25.4,176.9,25.3L176.9,25.3z M177.5,26.6C177.5,26.6,177.5,26.6,177.5,26.6
		C177.5,26.6,177.4,26.7,177.5,26.6C177.4,26.7,177.4,26.7,177.5,26.6c-0.1,0.1-0.2,0.1-0.2,0.1c0,0-0.1,0-0.1,0c0,0-0.1,0-0.1,0
		c0,0,0,0,0,0c0,0,0,0,0-0.1l-0.1-0.3c0-0.1-0.1-0.2-0.2-0.3c-0.1,0-0.2-0.1-0.3-0.1l-0.1,0l0,0.7c0,0,0,0,0,0.1c0,0-0.1,0-0.2,0
		c-0.1,0-0.1,0-0.2,0c0,0,0,0,0-0.1l-0.1-1.8c0-0.1,0-0.1,0-0.1c0,0,0.1-0.1,0.1-0.1l0.5,0c0.1,0,0.2,0,0.3,0c0.1,0,0.2,0.1,0.2,0.1
		c0.1,0,0.1,0.1,0.1,0.2c0,0.1,0,0.1,0.1,0.2c0,0.2,0,0.3-0.1,0.4c-0.1,0.1-0.2,0.1-0.3,0.2c0.1,0,0.2,0.1,0.2,0.1
		c0.1,0.1,0.1,0.2,0.2,0.3l0.1,0.3C177.5,26.5,177.5,26.6,177.5,26.6L177.5,26.6z M178,25.7c0-0.2-0.1-0.4-0.1-0.6
		c-0.1-0.2-0.2-0.3-0.3-0.5c-0.1-0.1-0.3-0.2-0.5-0.3c-0.2-0.1-0.4-0.1-0.6-0.1c-0.2,0-0.4,0.1-0.6,0.1c-0.2,0.1-0.3,0.2-0.4,0.3
		c-0.1,0.1-0.2,0.3-0.3,0.5c-0.1,0.2-0.1,0.4-0.1,0.6c0,0.2,0,0.4,0.1,0.6c0.1,0.2,0.2,0.3,0.3,0.5c0.1,0.1,0.3,0.2,0.5,0.3
		c0.2,0.1,0.4,0.1,0.6,0.1c0.2,0,0.4-0.1,0.6-0.1c0.2-0.1,0.3-0.2,0.4-0.3c0.1-0.1,0.2-0.3,0.3-0.5C178,26.1,178.1,25.9,178,25.7
		L178,25.7z M178.4,25.7c0,0.3,0,0.5-0.1,0.7c-0.1,0.2-0.2,0.4-0.4,0.6c-0.2,0.2-0.3,0.3-0.6,0.4c-0.2,0.1-0.5,0.2-0.7,0.2
		c-0.3,0-0.5,0-0.7-0.1c-0.2-0.1-0.4-0.2-0.6-0.4c-0.2-0.2-0.3-0.3-0.4-0.6c-0.1-0.2-0.1-0.5-0.2-0.7c0-0.3,0-0.5,0.1-0.7
		c0.1-0.2,0.2-0.4,0.4-0.6c0.2-0.2,0.3-0.3,0.6-0.4c0.2-0.1,0.5-0.2,0.7-0.2c0.3,0,0.5,0,0.7,0.1c0.2,0.1,0.4,0.2,0.6,0.4
		c0.2,0.2,0.3,0.3,0.4,0.6C178.3,25.2,178.4,25.4,178.4,25.7L178.4,25.7z"/>
</g>
</svg>
